<?xml version="1.0" encoding="utf-8"?>
<!-- Generator: Adobe Illustrator 22.0.0, SVG Export Plug-In . SVG Version: 6.00 Build 0)  -->
<svg version="1.1" id="Ebene_1" xmlns="http://www.w3.org/2000/svg" xmlns:xlink="http://www.w3.org/1999/xlink" x="0px" y="0px"
	 viewBox="0 0 512 512" style="enable-background:new 0 0 512 512;" xml:space="preserve">
<style type="text/css">
	.st0{opacity:0.25;}
	.st1{fill:#475D8B;}
</style>
<g class="st0">
	<path class="st1" d="M496.9,200.3c-1.2-1.3-4.6-1.5-4.7,1c0.5,2.4,4.3,0,4.6-1c4,1.5,7.5,3.3,11.3,5c-1,6.3-3.6,10.8-11.4,10
		c5.7,1.8,12.6,2.5,13.2,9.8c-0.3,4-4,4.3-5.7,7c1.3,5.3,7,5.8,7.7,11.8c-0.6,4.3-5,4.5-6.6,8c-2.7,0-7.4-3-8.4,1
		c1.3,2.5,5.8,0,7.5,0c5.3,4,11.5,12.5,3,17.7c-4,0.8-11.2-1.8-12.3,2c1.3,2.3,6.6,0.4,9.4,1c2.4,3.6,6,5.8,4.8,13
		c-3,0.6-5,2.6-6.5,4.8c-3.6,0.4-5-5-8.5-1.8c4.4,5,14.4,3.7,14,11.8c0,4.8-4.3,7.2-10.2,9c0.7,4.4,4.6,5.6,5.6,10
		c-1.2,10.2-11.5,7.4-18,7.8c0.2,3.5,6.3,0.8,7.7,3c0.3,5.7,4.8,8,2.7,13.8c-2.3,2.3-6.7,2.2-9.4,4c-3-1-3.6-4-7.6-4
		c1.6,5.3,7,6.6,10.4,10v7c-6,4.5-12,1.6-18.7,0c4.7,4.4,13.6,6.7,10.3,16.7c-3.3,1.5-7,2.6-12.2,2c-1.7-1.5-1.4-5-4.7-5
		c-1.6,0-2.4,0.8-2.8,2c3.6,4.7,11,5.6,9.3,16c-3,4-7,1.3-11.3,2.8c-2.5-2-3-6-8.5-4.8c1.2,7,9.7,7.6,9.4,13.8
		c-0.8,14.8-16.7,1.6-21.7,2c2.2,5.6,9.4,6,7.5,16c-6.3,7-14.5-1-19.7-4c4,5.3,11,16.7,2,21.7c-8,0.7-8.6-6.2-15-7
		c3.7,4,9.3,14.3,1.8,19c-9.2,1.3-11-5-15-9c-7,2.3,2,4.3,2.7,7c3.7,12.4-5.6,16.4-14,10.8c-1.2-3-0.5-8-5.7-7c-1,5,2.8,5,3.7,8
		c0.2,8-0.8,12-7.5,12c-6.8-0.4-5.8-8.8-11.3-11c-1,0-1,0.8-2,1c3.3,4.5,6.6,15.2,0,18.8c-5.5,1-6-3.4-10.2-4c0-4.3-0.2-8.4-4.7-8
		c-4,2.7,1,5.8,2,9c-1.4,3.4-2,7.4-4,10c-5,2-7-2.4-11.2-4v-6c-0.8-2-5-2.7-6.6-1c3.2,6.6,3.6,16.3-2.8,18c-7.6,1.8-8-8-12.2-13
		c-2.7,6.5,2,19-7.5,18.8c-6.4,0-6.5-8-10.4-13.8c-5,3-0.7,13.2-6.5,17c-11,1.8-8-11-13.2-15c-2.3,3.3,1.4,12.7-3.7,17
		c-8.6,2.4-13.3-5.4-12.2-16c-6.2-0.7-2.6,5-3,9c-4.4,13.2-20.5,5.8-16-9h-2.7c-2,1-0.3,6.2-1,9c-5.2,1-4,8.8-12.2,7
		c-3.3-4.2-6.3-11-2.8-17c-5.3-4-6.5,3.3-5.6,9c-2.2,2.2-5.4,3.4-7.5,6c-6.7,0-6.4-7.2-8.4-12c1-1.8,2.5-2.7,3-5c-0.3-1-1-1.5-2-2
		c-4,6.7-6.2,19-17,13c-1.5-5.7,0.3-12.3,0-17c-5.5,2.2-6.2,9.3-10.3,13c-13.5,2-9.6-12.4-7.5-19.8c-5.6-1.4-4.8,4-5.6,8
		c-4.6,0.3-6,4.2-10.4,4.8c-8.3-4-2-14.2-2.8-20.8c-5.7,3-6.4,11.2-13.2,13c-2.8,0-3.6-2.2-5.6-3c-2-9,4.4-12.4,2.8-18
		c-7,1.8-10,15.5-19.8,8c-1.2-8.2,1.3-12.5,4.7-15.8c0-1.4-0.4-2.2-1-3c-5,4.4-11.8,14.4-19.6,7c-0.4-7.7,2.4-12,6.5-15
		c-2.3-5-6.4,0.8-6.5,4c-4.6,1.6-12.4,3.8-15-1c1.2-7,0.4-11.7,6.5-14.8c-0.5-1.4-1.5-2.4-2.8-3c-5,4.8-7,6.8-16,7
		c-7.2-7.6,2.6-14,5.6-19.8c0-1.4-1.6-1-2-2c-3.8,0.4-4,4.8-6.5,7h-9.4c-6-6.2,0.8-15.6,6.7-18c0-1.3-0.4-2-1-3c-6.8,1.2-7,8.2-14,7
		c-11-1.7-5.7-16.5,3.7-19.8c-5.7-5.7-8.7,7-17.8,4c-10-10,8.3-14.3,7.5-20.8c-6,2.5-17.2,5.3-19.7-3c1.6-7,8-8.8,12.3-13
		c-5.5-2-9.5,4.6-17,1c-8-8.7,3.4-15.6,10.4-17.7c0-1.4-0.5-2.2-1-3c-6.2,2.5-13,4.3-17.8-1c-2-11.7,9.5-9,13-14.8
		c-4.5-2.5-13.4,3-18.7-4c0-9,4.6-13,14-12c0-1.3,0.6-2,1-3c-3.6-4-13,1.2-17.8-3c-4.4-12.6,8.5-12.5,15-14.8
		c-5.4-1.5-17-0.5-17.8-8c-1-8.8,9-7.3,16.8-9.8c-4.4-7.2-21.6-2.5-16-15c1-2.2,5-1.4,6.6-4.8c3.4-0.7,3.6,2,6.6,2
		c1.2-0.4,2-1.3,2-3c-7.8-1.6-17-1.5-16-12c4.4-4.3,10.4-4,16.8-4.8c-0.3-4.6-6-0.6-8.5-1c-0.2-4.4-5.6-3.4-6.6-7
		c1.2-10.5,11.4-7.2,18-8c-4-2.7-11.2-2-13.3-6.8v-5c5-4.7,11.6-2.8,17-3c-3.6-3.5-8.4-5.7-12.2-9c-0.8-3.6,1-4.6,1-7.8
		c5.8-1.7,11.3-2.6,16.8,0c-2.7-7-13.3-5.8-12.2-16.8c3.7-8.7,15.8-0.3,20.7-2c0.3-5.3-6.3-3.3-9.4-5c0-5-5.3-4.2-3.7-10.8
		c6.4-6.4,15.5,0.5,21.7-1c-7.4-5.6-20-20.8,0-20.8c2.3,2.7,5,7,9.4,5c-2.2-7-13.3-4.6-11.3-16c0.8-0.2,1.2-0.8,1-2
		c8-2.7,13.8-1.2,18,4c1.2-0.2,1.5-1.6,2.7-2c-3.4-4.3-11-6.5-10.3-12.8c1-12.3,14.4-4.8,21.6-1c0.3-4.3-2.6-5.2-5.6-6
		c-1-4.5-2.4-8.2-1-12.8c8.5-5.5,12.4,3.5,19.8,5c-2-6-7.8-7.8-7.5-16c6.2-7,16.3-1,18.8,5c4.2-4-10-15,0-19.8c9.3-1.2,10.6,6,17,8
		c-5.4-5.2-8.7-16.4-1-19c8-2.5,10,6.6,16,10c-3.5-7-4.3-7.5-3.8-15.8c10.6-8.6,13.3,5.3,20.7,8c-2-6.8-5.5-12,0-18
		c7-1.3,7.6,4,12.2,5c1.6-3.3,3-6.7,3.8-11c10-4.3,12.5,6.4,17,11c-1.6-7-3.3-18.6,5.6-18.8c7,0,7,9.8,11.3,15c3-4.8-1-9.5,1.8-17
		c2.2-1.4,4.7-2.5,8.6-2c3.8,3.7,4.8,10.2,7.5,15c0.2-6,1.2-12.5,4.8-17c8.6-0.7,11.2,5,12.3,12c4.5-3.3,15.4-8.5,17,1
		c3,1.2,0.7-3.3,3.8-2c0,2.4-1.8,3,1,4c3.3,0.2,2-4.4,3.7-6c0.6-2.7-4.5,0.7-3.8-2c0-4.7,3-6,4.7-9c3.6,1,4,5.2,5.7,8
		c0.2,1.8-1,2.3-2.8,2c-0.6,3,1.7,3,1,6c4-2,6.2-6.4,10.3-3c2.2-0.6-1-1.6,1-3c6,0,9,1.2,12.2,6c-3.2,2.7,0,6-2.8,9
		c1,0.7,2.4,1.2,4.6,0.8c-1-3.2,5.2-3.3,8.4-5c3.7,3,10.2,7.7,17,4c9,5.6,21.2,7.5,34,9c2.6,5,8.4,9.6,15.8,7c5,2.4,7,13,15,8.8
		c4.3,4.5,7.5,10,16,10c1.8,7,7.3,10,15.2,10.8c1,7.8,6,11.4,13,13c-0.6,9,5,11.3,12.4,11.8c-0.5,8.4,3,12.6,9.4,14
		c1,7.5,3.6,13.8,11.3,14.7c1,8,2.4,15.3,9.5,16.8c-1.3,9.3,1.5,14.2,7.5,16c0,5.2-1.6,14.6,6.6,15.7c-2.4,8.4,0.4,15.6,5.6,19
		c-1.6,5.3-1.4,12.7,4.7,12.7c-2.3,6.2-2.5,13.7,1.8,17.8c-5.2,8,2.3,16.2,0,23.7c1.4,0.2,10-0.6,12.2-3c0-7.3-5.6-9.2-12.2-9.8
		c-2-9,10-3.3,10.4-10c-0.2-2-4-0.4-5.7-1c-1-3,2-1.7,3.8-2c0.5-5.7-7.7-2.4-9.4-6c-0.4-6,8.7-2.5,9.3-7.8c-0.4-2.3-4.7-0.5-6.6-1
		c0.8-1.8,4.2-1.7,2-4c-1.8-2.5-7.3,2.2-8.6-2c0-4,3-5,6.7-5c6-5.2-1.2-14-9.4-10c-0.4-1.8-2.7-1.7-2-4.8c1-4.5,6.3-4,8.6-7
		c-0.8-10-9.8-4.6-15.2-6v-5c2-0.7,3.2-2.4,6.6-1.8c2.4-8.6-4.4-11.4-11.3-8c-1-1.6-2.4-3.3-1.8-7c2.2-0.2,4-1,5.7-2
		c1.5-5.6-2-5.7-4.8-10.8c-4,0.3-7.5,4-10.4,0c0.3-3.6,2.7-5,5.7-6c3.5-16.3-13.7-2-16-11.8c2.3-2.5,6-3.6,6.6-8
		c-1.4-1.7-3-3.4-4.7-5c-4.7-0.2-5,4-10.3,3c-3.4-5.8,2.8-6.6,2.8-11.8c0.7-2.7-1.8-2-2-4c-7.3-1-8.7,5-14,1c-1.4-5.4,2.4-5.4,3.8-8
		c-1.2-3.4,0-3.5-1-6.8c-5.3-2-8.7,0-12.2,4c-2-0.4-1.8-2.7-3.7-3c0-4.6,3.7-5.4,2.8-11c-5.2-6-9.8,2-15,2
		c-3.5-3.7-0.2-8.4,1.8-11.8c-1-1.5-3.7-1.4-3.8-4c-4.3,2.3-5.6,4-11.2,6c-0.3-1.4-2-1.2-3-2c0.7-4.6,2-7,2-10c0.5-3-4.7-0.3-3.8-4
		c-5,1-9.5,9.7-15,4c0-5.2,3-5.7,1-10.8c-2.6,1-1.2,6-4.8,6c-2-2.7,2-4.7,3-7c-6.9-3.6-6.7,6.4-12.5,6c-0.2-1-0.8-1.2-2-1
		c-1.7-3.7,2-5.4,0-9c-5-5-8.8,3-15,3c-3.4-2.8,0.2-6.7-2.8-10c-3.8-0.7-0.2,6.5-4.7,5c-0.7-3,1-3.6,1-6c-1.8-1-6.6,3-6.7,7h-4.6
		c-2.4-4,2.4-10.8-3.7-12c-4.3-1.4,0.5,6.6-3.8,5c-0.8-3.3,1.7-4,0-6c-6-0.4-3.5,7.8-7.6,9c-7,0.4-4-9-4.7-10.8
		c-0.6-2.4-5.8,0-6.6-2c-4.2,1-3.3,7.6-7.4,9c0.8-2.6,1.2-5.4,1-9c4.5-1.5,5.3-7,13-5c3,3.8,5.2,9.8,2,15c5-2.6,3.2-10,9.4-11
		c6-1,7.5,3,11.3,8c0.7,4-3,3.3-2,7.8c3.8,0.7,2.8-3.7,3-7c7.4-6.8,19.5-2.7,15,10c6-6.5,22-11,17,6c3-4,9-8,16-5
		c-1,4,1.7,4.7,1.8,8c-1.7,1-3,2.5-4.6,4c-0.3,1.8,1.2,1.8,2,3c3.3-4.3,11-10.4,17.7-5c2,8,0.7,7.3-1.8,13.8c4.8-2.6,6.8-8,14.2-8
		c8.8,4,0.7,13.3,1,18c3.5,0,3-4.2,4.6-6c7-0.6,15,0.7,13.2,8.8c0.5,4.5-5,2.7-4.7,7c2.6,3.3,4.4-2.6,5.6-4c5.2,1.4,9.7-1,13.3,3
		c0.2,5.3-3,5-1,10c-2,1.4-5.8,1-4.7,5.8c4,0.3,4.4-3.3,6.6-5c3,1.4,7.5,0.8,10.4,2c2.5,6.2-1,12.2-4.7,15c4,0.4,12.2-6.4,16.8,1
		c0.2,7-3,10.7-7.5,12.8c4.8,0.5,13-4.3,18,2c0.8,8.5-4,11-7.7,14.8c1.8,2.5,4.3-2.7,6.6-3c2.7,3.5,8.7,3.5,11.3,7
		c-0.7,6.8-4.3,10.6-10.3,12c4.3,3.4,16.2-3.4,18.8,5.8c-1.6,3-4,5-4.7,9c-2.7,0-6.5-1-6.6,2c2.4,3,5.8-1,7.5-2
		c8.2,1.2,13.6,9,6.6,15.8c-3.8-0.4-7,0-7.5,3c7,0,10.5-0.3,17,4c0.7,7.4-3.6,9.4-6.7,12.8H496.9z M220.3,15.1c-0.4,3,3,2.2,2,6
		c-1.8,3.2-3.8,4-7.6,3c0-4.6-2.8-6.5-3-11c-3-0.8-3.5,1.5-6.4,1c-2.6,4.8,1,11.5-3.8,15c8-6.6,19.8,1.2,27.3-7
		c0.3,2.2,4.4,0.5,3.7,4c-1.3,0-7.7-0.5-4.7,1c3-0.8,8,1,9.4-1c-3-5-8.2-21.5-17-11H220.3z M248.5,16.1
		C249.2,16.7,248.1,15.7,248.5,16.1z M279.5,17.1C280.2,17.7,279.2,16.6,279.5,17.1z M185.5,31.9c-8.6,1.8-5.8-8.4-12.2-9
		c-1,1-2.2,1.2-3.8,1c0,2.7,1,6.3-2.8,5c-0.8,4,4,1.7,2.8,6c-1,1.3-2.5,2-3.8,3c-3.2-4.3-9-11.3-16-6c0.7,3.5,2,5.8,2,12
		c-1.6-0.4-1.7,0.8-3,1c-5-3.6-7.5-12.3-16-7c-0.3,6.5,2.8,6.4,3,13.8c-1.2,1.2-3.4,1.2-5.7,1c0.3-6-5.6-5.3-7.5-9
		c-1,2.5-2.2,4.4-5.7,4c0,5.5,3,7.6,3.8,12c-2,0-1.2,2.7-3.8,2c-3-4.3-11.4-7.5-16-2c1.4,4,4.7,5.4,4.7,12.8c-2.2-0.4-2,1.8-4.7,1
		c-2.7-1-3.7-4-4.7-7c-4,0.2-8.2,0.8-9.4,6c1.4,4.5,7,4.6,5.7,12c-0.7,0-1,1-1.8,1c-6.7,0-6.7-7-14-6c0.4,3.5-3.5,2.4-3,6
		c1,4.5,6.4,4.5,6.6,9.8c-0.8,1.5-1.4,3.2-3.7,3c-5.2-0.4-6.5-5-12.2-5c0,3.7-3.3,3.8-4.7,6c2,4.8,7.5,6,8.6,12
		c-1.8,0-0.7,3-2.8,2.8c-7.3-0.3-6.8-5.4-14-4c0,3-2,3.5-3,5c3,4.2,9.4,4.7,10.4,11c1.3-1.4,1-4.4,1-7c6.2-2.7,11.8-6,11.2-16
		c5-0.4,8.2-3.2,11.3-5.8c0-12.7,15.6-8.7,16-20.8c3.4,0,5.4-1.5,8.5-2c1.7-3.2,2.8-7,5.6-9c5.5,1.5,11.6-5,15-8.8c9,1,12-3.8,15-9
		c8,1.4,13.4-5,19-8.8c9,2.3,13-8.4,24.4-7c6.6-0.2,6-5.4,13.2-3c-0.3-3.6-4.2-3.5-3-9c-4,1.6-2.7-2.8-6.4-1.8c-2,1.3-3.2,3.2-3.8,6
		c2,2.6,2,5.2,0,7.8L185.5,31.9z M242.9,32.9c7.2,0.8,3-6.4,6.6-8c2,0.5,0,5.3,2,6c2.5-0.8,2.3,1.4,4.6,1c2.4-3-0.3-7,0-11
		c-5,0.3-7-2.5-11.3-2.8c-3.3,3.3-2.7,9.6-2,14.8H242.9z M266.4,21.9v10c6.7,1.7,4-6.5,8.6-7c2.2,2.3-0.3,4,0,7
		c6.5,2.3,7.6-5,6.6-12c-7-0.4-9.7-0.2-15,2H266.4z M259,24.9C259.6,25.6,258.6,24.6,259,24.9z M262.7,24.9
		C263.4,25.6,262.4,24.6,262.7,24.9z M214.7,28.9c-1.3,0.6-4.8-1-4.6,1C211.4,29.4,214.9,31.1,214.7,28.9L214.7,28.9z M264.7,28.9
		c-0.8,0.3-2,0-2,1C263.5,29.7,264.7,29.9,264.7,28.9z M297.7,28.9c-1.2,0.2-2.8,0-3,1C295.7,29.9,297.4,30.1,297.7,28.9z
		 M302.3,29.9C302.3,32.9,306.1,28.9,302.3,29.9C300.1,26.9,296.1,31.1,302.3,29.9z M208.1,29.9c-0.8,0.3-2,0-2,1
		C206.9,30.7,208.1,30.9,208.1,29.9z M242.9,36.9c-2.2-9.5-10.4-6.6-18-6c-63.4,5.4-107.6,34-141,71.3
		c-32.8,36.6-61.3,90.7-58.3,158.4c3,65.7,26.5,115.8,64,152.6c37.2,36.6,81.6,64.7,143,69.3c92.4,7,158.4-34.4,199.4-82.2
		c31.3-36.4,61.6-96.5,55.5-168.3c-4.3-50.4-28.5-95-53.6-124.8c-29.6-34.9-71.6-64.6-123.3-73.4c-12.3-2-29.6-6.2-32,2
		c-3,10.7,18.2,20,22.6,22.8c13.7,15.7,32.5,21.7,48.8,30.7c16.8,9.5,31.9,21.8,45.3,35.8c25.2,26.4,49,63.3,51.8,112
		c4.2,72.2-28.3,130.7-72.5,165.2c-42.7,33.5-112.7,54-179.7,32.8c-39.6-12.6-73-40.7-96-73.3c-21.2-30.4-41.3-82-32-136.7
		c7.6-44.5,29.7-79.7,55.6-105c28.5-28,64-38.4,97.8-61.4C230.3,53.9,245.3,47.1,242.9,36.9L242.9,36.9z M188.3,33.9
		c5.2,0,9.3-1.4,13.2-3C196.2,30.9,191.1,31.2,188.3,33.9z M261.7,30.9c-0.7,0.3-1.8,0-2,1C260.7,31.7,261.7,31.9,261.7,30.9z
		 M163.9,34.9h2.8v-3h-2.8V34.9z M249.5,32.9C250.1,33.6,249.1,32.5,249.5,32.9z M249.5,33.9v4c4,0.4,1.2-2.7,2.8-3
		c2.2,1.7,13.4,4,15-1v4c3.6,1.4,0.2-4.5,3.8-3c0,1.4-0.4,2.2-1,3c3-2,3.3-2.5,5.7-3C268.4,31.6,258.4,33.5,249.5,33.9z M172.3,38.9
		c4.3-0.8,7.7-2.5,11.3-4C178.1,34.4,174.8,36.1,172.3,38.9z M247.6,37.9C250.2,32.9,243.1,35.4,247.6,37.9z M273.9,40.9
		c-10.3-0.3-15.5,0-26.3,0c-3.3,4.7-13.8,12.2-12.3,15.7c20.2-2.4,37,1.2,55.6,0c-6.7-4.2-11.2-10.7-17-16V40.9z M160.1,43.9
		c-2-0.4-3,0-2.8,2C158.9,45.9,159.7,45.1,160.1,43.9c2.8,0,5.7,0,5.6-3C163.7,41.6,160.7,41.4,160.1,43.9z M155.4,46.9
		C156.1,47.4,155.1,46.4,155.4,46.9z M149.8,48.9c-4.7-0.8-10,3.2-8.4,5.8c2-2.8,6.6-3,8.4-6c4,1,0.2-3,0,0V48.9z M366.2,48.9
		c-0.5-0.4-3.6-2.6-3.7,0c1.8-1,3.2,2.8,3.8,0H366.2z M376.6,56.7C377.2,57.3,376.2,56.3,376.6,56.7z M125.4,62.7
		C124,63.2,125.4,63.7,125.4,62.7c3.2-1.3,6-3,8.5-5C128.9,57.1,126.9,59.5,125.4,62.7z M278.7,59.7c7,0.8,17,4,22.6,3
		c-7.6-3-12.3-3-22.7-3c-18-2-37.4-2.8-56.4,2c17-2.6,37-2,56.3-2H278.7z M384.1,58.7c-0.8-0.4-3.8-2.4-3.8,0
		C382,57.7,383.3,61.7,384.1,58.7L384.1,58.7z M243.9,62.7c-21.8,1.8-36.7,6.4-48,15.8c13.6-2.7,28-7.7,43.3-9c29-2.3,59.2,3,82.8,9
		c-15.6-14-48-18.5-78-16L243.9,62.7z M393.5,66.7c0.4,2,2.6,2,4,3C397.7,67,396.1,66.3,393.5,66.7v-1c-0.6-0.8-2.4-1.6-2.7,0
		C391.6,66.1,392.3,66.7,393.5,66.7L393.5,66.7z M119.8,66.7C120.5,67.2,119.4,66.2,119.8,66.7z M109.3,73.3
		C107.9,73.9,109.3,74.5,109.3,73.3c3.2-2.2,8.3-2.5,9.4-7C113,66,112,70.6,109.3,73.3z M185.5,92.1c-2.4,0.2-3.6,1.5-3.8,4h3.8
		V92.1c6.3-1,5-10,13.2-9c4.8,9.8,22,11,21.6-4.8c2.8-1.7,6.6-2.4,11.3-2c-0.3,6.6,8.8,3.3,8.5,10c3.2-0.4,5.4-1.7,9.4-1
		c-1.2-7.2,5.6-6,6.6-11h12.2c-0.4,6,7,3.8,5.6,11c3.7-0.6,4.6,1.7,8.5,1c5-5,9.4-9.3,20-7c0.2,2.3,1.4,3.7,0.8,7
		c4,0.3,6.2,2.6,6.6,6.8c4.5-0.7,6,1.6,10.3,1c0-4.4,5.3-3,5.7-7c2.8,1,7.5,0,8.5,3v7c5.6-2,1.3,6.4,6.4,5c1-3-3.7-7.4,1-11
		c-41-23-114.7-26.6-158-4C185,88.1,185.7,89.7,185.5,92.1z M413.3,80.5c-2.8-1.5-5.4-8.3-9.5-5c4.2,0,5.5,8,9.4,5H413.3z
		 M106.5,76.5c-1-0.2-1.7,0.2-2,1c-4.8-0.2-5.8,3.7-7.4,7c-1.4,0.5,0,1,0,0c3.2-1.6,5.5-4,7.5-7c1,0,1.7-0.2,2-1
		c1.2-0.6-0.2-1.2,0,0H106.5z M254.2,82.5c2.8-0.5,2,3,5.5,2c-0.7-4-0.7-4,0-8h-2.8c-0.8,2-1.5,4.4-2.8,6H254.2z M262.5,84.5
		c3.3,0,4.5-2,6.6-3c-3.5,1-1-4.3-3-5h-4.6C262.1,78.9,262.9,81,262.5,84.5z M322.8,80.5C323.4,81.1,322.4,80,322.8,80.5z
		 M207.1,110.3c3-6.3,7-11.2,9.4-18c-13.7,3.4-19.2,20.7-33.8,20c1.7-2.7,5-3.5,8.4-4c0-8.8,4.7-12.4,4.7-21
		c-8.6-0.8-4.8,18.7-12.2,13c-3,4-5,9.4-6.6,14.8c3.7,8,10.7,2.2,17,0c-2,6-11.2,4.2-13.2,10c-0.5,4,5,1.8,6.6,4
		c-1,1.3-4.5,0.3-4.6,3c26.2-0.8,51.6-30.8,47-50.7c-3.4,12-6.2,24.7-15,31c4-8.4,14.6-20.3,9.4-31.8
		C220.2,91.6,215.7,107.3,207.1,110.3L207.1,110.3z M415.1,84.3c-0.2,1,0.3,1,1,1c2.2,3.3,5,6,8.4,8c-1.3-4.3-4-7-8.5-8
		C416.2,84.6,415.6,84.5,415.1,84.3C414.5,83,414,84.5,415.1,84.3L415.1,84.3z M297.5,97.3c-3.4-4-5.8,6.4-2,7
		C296.3,102,296.5,99.3,297.5,97.3c7.8,11.2,18,20,28.2,28.7c3-1.4,5.6,4.6,5.6,0h2c0.7-0.4,1.6-1,1.8-2c-0.8-2-3.6-2.2-3.8-5
		c7,1,10.3-1.7,12.3-6c-3.7-4-6.5-14-11.3-13.7c0.8,0.2,2.5,4.4,1,4c-4.5-2-2.7-10.5-7.6-12c-2.6,11,9,15,12.2,22.8
		c-10.3-1.8-11.2-18.2-22.6-15.8c-0.4,15.3,11.6,17.5,16,27.7c-13.8-6.7-18.7-22.7-27.3-34.7c-0.8,5.3,5,7.6,3,11
		c-6.4-4-4.6-16.5-13.3-18c-0.2,4.3-5.5,11-1,14c0-3,0.3-5,2-6C296.3,93.3,297.9,94.3,297.5,97.3z M245.7,88.3c-0.8,4.3,1.6,5,3.8,6
		c-0.2-2.8,0-5.4,2.8-5c0.6,2.4,1.3,4.7,3.8,5c1-1,1-3.5,1-6C254.1,85.5,249.1,86.7,245.7,88.3z M264.5,94.3c5,1.3,2.5-5.3,7.6-4v6
		c3.8,0.4,3.7-3.4,5.6-5C275.9,84.3,260.3,85.3,264.5,94.3z M288.1,93.3c2.4,0.6,4.6-7.2,1-7C287.7,87.7,288.1,90.7,288.1,93.3z
		 M159.1,122.1c-3-1-3,1.5-3.7,3c2.6,0.2,4-0.4,4-3c8-3.5,4.6-10.5,15-10c3.5-6.8,6.4-14.2,6.5-24.7c-9,2-15,6.8-21.6,11
		c11.5,4.2,5.4,17.4,0,23.8L159.1,122.1z M236.3,93.3c1-2.7-1.5-7-2.8-4C235.5,89.6,233.7,93.8,236.3,93.3z M233.5,110.3
		c4.4-3,9-6,12.2-10c-0.4-5.6-4.7-7-5.6-12C239.3,96.8,231.6,102.3,233.5,110.3z M291.8,140.9C290.4,141.5,291.8,142.1,291.8,140.9
		c5.8-1.8,4.8-10.8,9.4-14c0.7,6.2-3,7.5-3.8,12c5-0.2,5.6-5.3,8.4-8c3.2,8.8-9.2,9.4-12.2,15c3,0.6,4-5.6,6.6-2
		c-8,8-15.8,16.4-29.2,18.8c6.4,7.2,9.3,18,12.2,28.7c5-6.5,12.4-20,24.5-12.8c0.6,3.6-0.6,5.3-2,7c3.5,0,4.3,3,4,7
		c-1.3,2.3-3.2,4-6.7,3.8c-1.6-1-2.4-2.7-2-6c3-1.2,5.3,3,6.7,0c-5.5-9.4-15.3,1.4-14,11c13.7,7.6,26.5,16.3,32.8,31.7
		c-0.8,3.4-2,6.4-3.7,9c7.5,0,5.3,10,5.6,17.7c3,0.6,4.4-0.6,6.6-1c1-34,1.6-74,2-107c-3.6,0-5.5-1.5-6.7-4c0.4-2.8,1.6-5,3-6.8
		c-25.4-9.1-39-30.7-52-52.7c0,7-6,7.6-6.6,14c4,2.8,7.5,6.6,11.3,10c0.4-2.2-1.3-6.7,0.8-7c4.3,6.3,5.6,15.8,6.6,25.7
		c2-3,1.2-8.6,2.8-12c3.2,8.8-2.6,15.4-4.7,22L291.8,140.9z M83.8,97.3c3.3-2,6-4.5,7.6-8c-4.4,0.6-6.2,4-7.4,8H83.8z M193,105.3
		c5.7-0.3,10.8-12.7,5.7-15C197,95.6,194.7,100.1,193,105.3z M234.4,98.3c0-3,0.2-6-2.7-6c0.5,2.5,0,6,2.8,6H234.4z M330.4,94.3h2
		v-2h-2V94.3z M202.4,98.3c0.4-1.2,4-3.8,1-5C203.4,94.8,200,97.3,202.4,98.3z M350.3,116.1c1.4-5.3,4.8-1.4,8.5-1c2-3.5,5-6,7.5-9
		c-7.4-4.1-13.6-9.5-21.8-12.8c-2.6,8.5,0,19.6,5.6,22.8H350.3z M247.6,99.3c6.6-0.6,9.5-2,17-1C262.3,94.6,248.9,95.5,247.6,99.3z
		 M272.1,101.3c2.2-3-2.8-4.5-6.6-4C265.8,100.5,270.7,99.1,272.1,101.3z M231.6,102.3c-1.6,0-0.5-2.8-2-3
		C228.9,101.3,230.6,105.3,231.6,102.3z M435.8,105.3c-1-3-2-6-5.7-6C430.6,102.7,433.5,103.6,435.8,105.3z M163.8,104.3
		c-12-10-23,10.7-33.8,14.8c-3,7,2,12.7,9.4,12c-1.2-6.5,4.4,0.6,5.7-3c-1.3-0.3-0.8-2.5-1-4c1.8,0.8,2.5,2.7,5.7,2
		c-0.2-5-0.2-5,3.8-4c1-3.4-3.4-6.3-1-8c2.8,0.5,2.3,4.3,4.8,5c0-2.6-1-6.2,2.8-5c1.2-3.7-4-5.6-2-7c4-0.6,2.4,4.3,5.8,4v-7
		L163.8,104.3z M58.5,131c-4.6,1-8.7,8-6.6,12.8c7.5-15.5,21-30,28.2-42.5C71.1,109.3,63.1,118.3,58.5,131z M248.5,103.2
		c-4,0.3-6.8,2-8.4,5c-16,6.2-15.3,40.8,1,46.4c1-2,1.5-4.2,3.7-5c1.6,3.4,9.8-2.5,14-3v-13.5c-5,2.4,0,15.6-8.4,14.8
		c-2.7-0.7-3.7-3.2-5.5-5c-1,0-1.7,0.3-2,1c-16-19.2,10.8-44.2,29.3-30.7c10.2,6.8,12,27.6,1,34.7c0.3,4.2-2.2,7,0,11
		c31.8-12.4,14.1-71.6-24.9-55.8L248.5,103.2z M298.5,108.2c-1.3-3.2,2.7-5.6,0-7C297.5,102,296.5,107.5,298.5,108.2z M228.8,108.2
		c-0.5-1.5,1-5.2-1-5C226.6,104.4,226.4,108,228.8,108.2z M301.2,112.2c0.8-1,2-6.5,0-7C300.2,106,299.2,111.4,301.2,112.2z
		 M224.9,113c1.5,0.2,2-6.4-1-5C223.2,108.8,221.5,114,224.9,113z M303.9,115c1.3-1.3,1.8-7-1-7C303.6,110,301.9,114.6,303.9,115z
		 M362.3,116c0.2-2.4,3.2-0.2,3,1c-1.8,0.2-0.7,3.4-2,4c4.3-2,3.6,1,2.8,5c2.4,1.8,9-0.4,5.7,5c8,0.6,8.2-6.7,9.4-13
		C375.9,113,362.9,104,362.3,116L362.3,116z M229.7,114c0.2-1,1.7-2.2,0-3C229.7,112.2,228,113.3,229.7,114z M220.3,118
		c3,1.4,2.4-6,1-6C220.3,113.2,220.3,115.6,220.3,118z M261.7,118c3-1,4-3,5.7,1c-1.3,2.6-3.4,3.7-6.5,2c-0.8,2.4-1.3,5.3-1,9
		c0.8,0.8,6,2,6.6,0c-2-1-0.8-6.2,2-5c2.4,0,2,3.2,2,6h8.3c0.2-5.3-0.4-9.5-3.7-11c-0.2,2-2.4,2-4.7,2c-0.2-1.3-1.3-1.4-1-3
		c0.2-2,3.4-1,3.7-3c-4-1.3-6.2-4.6-12.2-4c-0.2,2.5-0.2,4.8,1,6H261.7z M446.1,116c-2.2-0.7-2.5-3.3-4.7-4c0,2.4,3.4,6.4,4.8,4
		H446.1z M172.3,115h2c1.4-2.4-3.3-3-3-1C172,114,172.5,114.2,172.3,115z M307.8,120c0.6-2.5,3.7-7.3-1-7
		C307.4,115,305.8,119.5,307.8,120z M246.8,115c4,4,1,11.7-1,16c8,1,3.5-11,4.6-17C248.7,113.8,248.4,115.2,246.8,115z M254.2,115
		C250.2,114,253.9,118,254.2,115h0.8c0.6,1.5,1.2,0,0,0c-0.2-1-1-0.5-1,0H254.2z M175.2,117C176.2,121,176.2,113,175.2,117z
		 M218.2,122c-0.4-1.8,1.3-6-0.8-6c-0.4,2.2-2.2,5.4,1,6H218.2z M312.4,124c0.2-1.5-0.3-3.7,1-4v6c3,0.3,1.5-4.4,2.8-6
		c-3-0.2-2.8-3.7-5.7-4C309.2,117.7,308.5,125,312.4,124L312.4,124z M337.8,125c3.5-2.3,6.6-5,8.5-9c-5,0.5-6.6,4.8-8.4,9H337.8z
		 M167.5,118c-1,3.3,3,1.5,4.7,2C172.4,117,168.9,116.5,167.5,118z M254.1,121h1.8c0-1,0.7-1.2,1-2c-1.3,0-1.4-1.3-3-1v3H254.1z
		 M362.1,126c0.4-3.8-1.7-10-4.6-7c3.4,0.3,0.8,7,4.7,7H362.1z M246.5,120c-1.8,0.2-2-1-3.8-1C241.2,121.7,246.7,121.7,246.5,120z
		 M345.2,124c4-1,8.6-1,9.6-5C349.8,118.7,345.8,119.5,345.2,124L345.2,124z M176.9,121C177.5,121.6,176.5,120.5,176.9,121z
		 M192.9,142.8c-2-6-4.5,3.2-9.4,1c0,2.6-0.5,5.8,2,6C186.7,146.2,189.5,144.1,192.9,142.8c-3,5.5-8.4,8.2-11.3,13.8
		c0.2,35-0.3,67.3-1.8,97c9,6-1.8,21,2.8,30.8c1.6-11.5,3.3-23,8.4-30.7c-4.8-1.8-5-8.5-4.7-15.8c1.3-1.4,4.6-0.7,5.8-2
		c-2.3-13,3.7-26.8,2-32.7c0.6-1.6,4.5,0.2,3.6-3c0-14,6.6-20.8,8.5-32.7c-3.6-3-6-7-5.7-13.8c3.5-0.3,8.5,1,9.4-2
		c1.6,3.6,6.2,4,7.5,8c-2.5,3.2-4.4,7.2-9.4,7.8c0.5,15.6-2.4,30.4-5.7,44.6c-1.8,8.3-7.8,17.5-5.5,24.7c3.6-2.8,2.3-11,6.6-13v2
		c13.8-4.3,46.6,2.8,53.7-11.8c-13.6,0.6-33,1.6-44.2,7.8c0.3-2-0.2-3-2-3c-3.5,0.5-4,4.3-7.4,5c2.3-5.6,8-7.5,14.2-9
		c-1.3-12,10.4-10,13.2-17.8c-2.3-6.2-8-14-17-10c1.2,5.4,5.7-3.2,6.6,3c-0.8,1.6-1.4,3.2-3.8,3c-2.3,0.2-3-1.4-3.7-3
		c2-6.2,0-10.6,3.7-14.8c11.8-5,18.5,17.3,23.6,17c6-0.6,8.8-25,12.2-29.8c-18.2-3.3-28.6-14.8-34.8-30.7c2.4-3,8.8-7.2,6.6-12
		c-7.5,10.7-20.5,15.5-31,23L192.9,142.8z M214.6,125.8c-0.5-1.3,1-5-1-4.8c-1.3,1.2-1.4,4.8,1,5V125.8z M161.9,122.8
		c2,4.6,8.7,4.2,14,5C176.5,121.2,166.7,120.8,161.9,122.8z M318.9,129.8c-0.2-3.8,2.7-7-1.8-7.8c0.2,3-1,7.7,1.8,8V129.8z
		 M377.3,134.8c7.5,4.7,14-10.6,6.7-12.8c-1,5.6-5.8,7-6.6,12.8H377.3z M253.3,126.8c1.4-1.4,1-4.3-2-4
		C251.1,125.2,251.6,126.8,253.3,126.8z M210.9,128.8c2,0.3,0.4-3.4,1-5h-3C209.4,125.8,207.7,129.8,210.9,128.8z M240.9,127.8
		c-1.4-4,5.3,0.3,4-4c-3,0.8-2,0.8-4.8,0c0,1.6-0.4,3.8,1,4H240.9z M340.7,129.8c1.7,3.8,12.2,2.4,14.2,0c-2.3-0.5-7,1.3-7.6-1
		c2.8-2.3,9.5-0.5,10.4-5C351.5,127.3,342.4,123.5,340.7,129.8z M48.1,146.8c-2,1.6-5.4,7.4-2.8,10.8c0.5-5,4.4-6.6,4.7-12
		c1.4-0.5,0-1,0,0c-0.7,0.3-1,1-2,1c1.4-4,2.6-7,1-11.8c1.8-2.5,6.5-1.8,6.7-6c-7.5,1.6-6.5-5.7-14-4c-3,3.7,4,3,3.6,7
		c-2-0.5-2.7-2.4-5.6-2c0,6,6.8,4.8,8.4,9c1,5-2.7,5-4.7,7c-5-3.8-6.4-3-12-3c0,3-2.2,3-2,6c2.8,4,10.5,2.8,10.4,9.8
		c-0.8,1.5-1.4,3-3.8,3c-5.8-2.7-6.7-2-12.2-2c0.6,3.6-2,3.8-2,7c3.3,3.8,10,4,11.4,9.8c-1,0.2-0.8,1.8-1,3c-6.6,0.5-10-1.7-14,1
		c-4.2,10.2,9.8,5.7,8.4,16c-5.5,2.3-13.7-3-14,5.8c0.8,4.7,9,1.5,9.3,7c-3,6.8-15.7-2.3-14,9.8c4.6,2.7,11-0.7,12,7
		c-4,3.8-8,1.5-13,4v6c2,1.6,5.2,2.3,9.4,2c1,2,2.3,4,1.7,7.8c-1.5,1.5-7,1.5-8.4,0c-3,2-4,8-1,11c4.3-1.6,7.6-0.6,10.4,2
		c-0.7-13.3-1.6-22,2.8-34.8c0.7-4-3-3.4-2-8c4.4-2.6,5.2-8.8,4-14.8c3.8-1.8,6.2-9.5,3.6-15c5.4-3,7.7-9,6.7-18.7
		c5.7-3,10-9.2,7.6-17.8c2.3-0.8,3.6-2.7,6.5-3L48.1,146.8z M134.7,199.2c-5-12.6-0.6-28,3.8-38.6c-7.4-6.6,3-19.6,0-25.8
		c-0.6-3.3-5.5-2-8.5-3c-2-2-1-7.4-5.7-7c-5,9.6-21,19.7-23.5,30.8c-3,13-1,32-1,45.6c0,14.6,0.6,27.6,0,39.6c15.6,1,30,3,44.3,1
		C132.1,236.4,124.1,210.6,134.7,199.2L134.7,199.2z M323.7,132.9c-0.2-3.4,1.4-8.6-2.7-8c-0.5,4.7-1.2,6.6,2.8,8H323.7z
		 M207.1,130.9c1.3-1.3,1.5-5-1-5C206.7,127.4,205.1,130.9,207.1,130.9z M336.1,129.9c0.8-1.8,3.4-1.7,3.7-4c-2.7-0.7-6.7,2-3.8,4
		H336.1z M150.7,129.9c0-2,3-0.7,2.8-3C151.1,125.9,148.1,128.9,150.7,129.9z M163.9,128.9c0.3,1.3,2.3,0.8,3.7,1v1
		c3.2-1,6.5,3,8.5,0c-1.6-1.7-5.5-0.8-8.5-1C167.3,128.5,165.3,129.1,163.9,128.9c-0.7-1-1.7-1.5-3-2
		C160.6,128.9,162.4,128.9,163.9,128.9z M327.6,134.9c-0.4-4.8,2-6.6-2-8C324.8,129.5,323.6,134.9,327.6,134.9z M364.3,129.9
		c0-0.6,0-1.2,1-1c-0.2-1.2-0.4-2.4-2-2C363.5,128.1,363.3,129.7,364.3,129.9z M203.3,132.9c0.7-0.8,2.4-5-1-4
		C202.6,130.4,202.1,132.5,203.3,132.9z M384,139.9c6,0,8-4.3,9.4-9c-1.7,0-1-2.7-3.6-2c-1.7,4-4.2,7-5.7,11H384z M148,130.9
		C148.5,131.5,147.5,130.5,148,130.9z M156.3,130.9c1.2,4.5,11,7.7,13.2,5c0,3,2.8,3,5.7,3v-4c-3.7,2-2.2-1-5-2
		c-0.4,5-3.2-3.2-4.6,2c0.2-4.6-7.5-4.8-9.4-4H156.3z M366.1,130.9C367.1,134.9,367.1,126.9,366.1,130.9z M178.9,131.9
		C180.3,135.1,181.3,127.9,178.9,131.9z M194.9,134.9c2.3,1.8,7,0,6.6-4C198.5,131.5,194.8,131.1,194.9,134.9z M331.3,136.9
		c0-2.7,0.6-6-2-6C330,132.9,327.9,137.9,331.3,136.9z M337,135.9c-1-3.2-0.5-2.7,1-5h-3C334.5,133.3,333.2,135.9,337,135.9z
		 M455.5,131.9C456.5,135.9,456.5,127.9,455.5,131.9z M222.2,132.9c0.4,3.7,3.8,9.7,6.5,8c-1.6-2-1-6.3-2-9
		C224.1,130.9,224.4,133.3,222.2,132.9L222.2,132.9z M241.9,139.9c1-3.2-0.6-4.5,1-8C236.9,130.6,239.3,138.9,241.9,139.9z
		 M244.7,132.9C247.7,135.9,247.5,129.2,244.7,132.9z M256,131.9c-2,0.6-6.2-1.3-6.6,1C250.6,134.2,255.9,134.7,256,131.9z
		 M353.8,139.9c-3.4,0.5,0-6-3.8-5c-2,0.2-0.2,4.3-2.8,4v-4c-3.8,1.2-2.3,2-5.6,0c0,1.5,0.4,3.7-1,4c1-2-1.4-4.8-1.8-2
		c1.7,0,0.5,3.3,1.8,4C346.2,140.7,349.3,142.1,353.8,139.9c4-1.3,9.3-1,11.3-4c-5.3-4.8-2-0.5-8.6-3c-1,1.8,3,3.3,0,4
		c-1-1-0.3-3.7-2.8-3v6H353.8z M188.2,136.9c1.5,3.3,7.4-2,3.8-4C193.4,136.9,186.8,132.6,188.2,136.9z M268.2,136.9
		c0-1.4,0.4-2.3,1-3c-1.3,0-1.4-1.3-3-1C266,135.1,266.5,136.6,268.2,136.9z M271,134.9h2v-2h-2V134.9z M277.6,137.9
		c0.7-0.8,2.5-6-1-5C277.2,134.3,275.6,137.9,277.6,137.9z M370.6,136.9v-4h-2.7C367.9,135.3,369.4,135.9,370.6,136.9L370.6,136.9z
		 M187.3,138.9c0.2-2.6,0.3-5-1.8-5c-0.6,2.4-2,5,2,5H187.3z M179.9,135.9c-4,1.3-4.5,6.5-5.7,10.8c2.2,2,5.6-2,8.4,0
		c-0.3-4.3-2.5-6.6-2.8-11c1.3-0.5,0-1,0,0L179.9,135.9z M415.9,160.6c-6.5-9-11-20.2-20.6-25.8c-1.7,6-8.2,6.6-13.2,9
		c7.6,30.3,12.4,71.4,8.5,105h23.5c1.6-31,1.2-60,2-88.2H415.9z M139.4,156.6c10,0.4,9.5-15,10.4-20.8c-4.2,1-2.8,7.5-6.5,9
		c-2-2.5,2-4.3,0.8-9C138.7,138.8,138.1,149.8,139.4,156.6z M143.4,187.3c12.2-1,3.7-24.2,11.2-30.6c0.5,10.2-1.6,17.5-3,25.8
		c8,1.2,4-10.4,6.7-15c4.5,2-0.8,8.8,1.8,12c3,0.5,2.5-2.7,4.7-3c-2.3-11.8-8.6-30-5.6-35.6c1,2.6,0.2,7.6,2.7,9
		c1.4-3.4,2.3,2,4.7,1c-0.2-4-5.3-2.5-5.7-6c1.8-0.3,2,1,3.8,1c-2.3-4.4-5-4.4,0-5c-5-1-7.2-5-13.2-5c-1.7,18.3-5.6,34.4-8.4,51.5
		L143.4,187.3z M181.8,136.9C184.1,141.9,184.3,133.5,181.8,136.9z M372.8,136.9C375.2,140.9,374.2,133.6,372.8,136.9z M260.8,137.9
		C262.2,141.2,263.2,133.9,260.8,137.9z M243.8,139.9h2v-2h-2V139.9z M248.6,140.9c1.4,0.2,1.6,1.6,3,2c-0.8-3,2.4-2,1.7-5
		c-2.3,0.3-4,1-4.8,3H248.6z M361.6,141.9c2.8,0,6,0.5,5.6-3c-2.4,0.4-4.3,1.4-5.7,3H361.6z M265.6,140.9
		C266.2,141.5,265.2,140.5,265.6,140.9z M260.9,142.9C262.2,146.1,263.2,138.9,260.9,142.9z M334.3,146.9c1.3-3.3,1,3.2,3.6,2
		c-0.4-4.8,1.2-2,2.8-1c0.7-5-2-6.6-6.5-6c-0.7,0.6-2.3,4.7,0,5H334.3z M362.3,184.3c2.3,0,3,1.7,5.7,1c0.6-2.4-1.2-7.2,1-8
		c4,0.5-0.6,10,3.7,10c1.5-5-3-10.4,1-12c2.5,6,1.5,15.6,7.5,18c-1-16.4-3.2-39.8-11.4-51.6h-2C364,153.7,361.1,166.7,362.3,184.3z
		 M272.3,146.8c0.4-1.4,1.3-2.5,1.8-4C271.8,141.8,270.1,146.2,272.3,146.8z M359.8,145.8c3.5,0.5,5.8-0.4,6.5-3
		C364.3,144,360.3,143.1,359.8,145.8z M254.4,143.8c-0.8,0.3-2,0-2,1C253.1,144.6,254.4,144.8,254.4,143.8z M382.2,240.8
		c-3-6.4-1.5-17.4-1.8-26.6c-6.8,3-11.4,13.6-8.5,23.7c6,3.5,11.3,7.8,15,13.8c4-38.2,1-77.5-8.4-107c0-0.7-0.7-1-1.8-1
		c7.3,30,8.3,63.3,5.6,97L382.2,240.8z M463.2,145.8C463,150.2,466.9,146.1,463.2,145.8C464,141.8,460.2,145.6,463.2,145.8z
		 M266.5,145.8c-0.7,0-0.8,0.4-0.8,1c-1.4,0.6,0,1.2,0,0c0.8,0.2,1-0.4,1-1c5,1,1-3,0,0H266.5z M353.2,155.8c0.6-2,2.5-4.5,1-6
		c-2.8-1-3.6,4.7-4.8,2c0.4-2,2.2-3,1.8-6h-7.5c0,6.7,4,9,9.4,10H353.2z M357.9,150.8c3,0,5-1.4,6.6-3
		C361.1,147.6,358.8,148.5,357.9,150.8z M176.3,153.8c3,0,5.7,0,6.6-2c-1.6-1.3-3.2-2.7-6.6-2V153.8z M252.5,154.8
		c4.4,0.3,4-1,8.5,2c0-3-1.2-4.8-2-7C255,149.4,252,150.3,252.5,154.8z M265.7,156.8c0.4-5.7,4.2-1.6,4.7,1c1.3-1.5,1.3-6.6,0-8
		c-5.6-2-9.2,4.8-4.8,7H265.7z M165.9,157.8c-1.4,0-3.5-0.6-3.7,1c3.2,2.8,1.4,11,8.4,9.8c1.5-5.4-4.7-2.8-4.6-7c1,0.8,2.2,1,3.8,1
		c0.7-3.6-3.6-2-3.8-5c1.4,0.2,2.7,0.3,3-1c-2-2.6-4.7-4.3-7.7-5.8C161.1,155,165.3,154.8,165.9,157.8L165.9,157.8z M174.4,156.8
		c-6.6,4.7,1.3,15,0,22.7c-1.2,6.5-5,5.6-7.6,11c-0.7,14-1.3,45.4-1,65.3c4.4,0,9.2,0.4,12.3-1c-0.3-38.5,2.5-57,2-99
		c-3-0.8-3,1.6-5.8,1c2-2.4-0.5-5.4-3-6c0,3-0.5,6.5,3,6H174.4z M338,258.8c4.7-0.7,6.6,1.6,11.3,1c1.7-27,1.3-55.8,1.8-82.3
		c-0.7-2.5-6-0.2-5.7-4c3-0.7,3.6,1,5.8,1v-15.8c-5-1.4-6.4-6.5-11.3-8c-1,34.8-1.2,73.7-2,108L338,258.8z M247.7,158.8
		c3-0.8,3.4,1,5.6,1c-0.5-3.6-1.7-6.3-3.8-8c1.6,3.3,0.6,5.5-2,7H247.7z M356.7,156.8c3.4-0.3,6.2-1,5.8-5c-2.4,1-5.3,1.6-5.6,5
		H356.7z M243,157.8c2.7,1.4,2.7-4.5,0-3V157.8z M206.3,158.8h1.8v-2h-2v2H206.3z M138.3,195.3c1.8-5.6,3-12,4.7-17.8
		c-3-1-3.6,4.8-4.8,2c2-6,9.5-16,5.6-21.8c-6,6.5-14.7,28-5.6,37.7L138.3,195.3z M211.6,157.7c-0.7,0.2-1.8,0-1.8,1
		C210.5,158.5,211.6,158.7,211.6,157.7z M254.9,158.7c2.5,4.6,4.7-2,7.5,3c0.2-2,3.2-0.7,3-3C263.4,157.2,256.9,157.2,254.9,158.7z
		 M356.5,161.7c3,0.2,4.6-1.2,4.7-4c-2.2,0.6-4.7,1-4.6,4H356.5z M266.2,162.7h3c0.8-3.2-1.5-3-3-4V162.7z M212.7,160.7
		C210.4,164,215.7,158.3,212.7,160.7z M353.7,159.7C352.4,173.7,357.4,163.4,353.7,159.7z M471.4,159.7c-0.7,0.2-1.8,0-2,1
		C470.4,160.5,471.4,160.7,471.4,159.7z M86.6,253.7c22.3,1,44,2.6,66.8,3c-2.3-21.6-41.4-4.5-56.4-12.8c-1-34.3,2-57.3,0-83.2
		C81,180.7,89.6,220.4,86.6,253.7z M254.1,164.7c-2,4.8,3,2.6,2.7,6h-3.5c-0.8,4,4.4-1.6,3.7,4h-4.7c0.8,5,2.5,9.2,4.7,12.7
		c14.8,4,14-16,9.4-23.6c-4,0.4-9.6-1-12,1L254.1,164.7z M356.5,167.7c3.2,0.6,3.5-1.7,3.8-4C357.3,163.2,356.1,164.5,356.5,167.7z
		 M40.5,165.7h-1c-0.8,2.5-4.8,6.7-2,9.8c0.6-3.7,3-5.4,3-10c1.3-0.5-0.2-1,0,0V165.7z M416.7,251.7c-10.8,2.3-19,0.2-28.2,0
		c-0.4,3.3-1.8,5.5-2,9c14.4-0.6,27.6,1,39.7,0c-2.4-29.6,9.8-75-7.5-93C418.7,198.2,418.3,222.5,416.7,251.7z M170.2,174.7
		c0.7-4-2-4.5-4.6-5C164.8,173.7,168.8,172.9,170.2,174.7L170.2,174.7z M355.7,172.7c2.2-0.5,4-1,4.7-3
		C358,169.7,355.6,169.7,355.7,172.7z M355.7,176.5c1.4,0.2,3.5-0.3,3.8,1c-3-0.8-3,1.6-3.8,3h3.8c1.3-1.3,1-4.3,1-7
		C357.5,173.1,356.5,174.8,355.7,176.5z M171.3,179.5c0.3-3-4-6-5.6-4C168.2,176.3,168.7,179.1,171.3,179.5L171.3,179.5z M479,182.5
		c-0.2-3.7-1.4-6.4-3.7-8C476.3,177.5,476,181.7,479,182.5z M275.8,176.5c-0.7,0.3-1.8,0-2,1C274.8,177.3,275.8,177.5,275.8,176.5z
		 M131.8,215.2c5.2-0.3,4.6-6.2,3.8-10c6.5,2.4,1.7-7,5.7-7c0,1.6,0,3.5,2,3c0.4-1.7-1.3-5.8,0.8-6c1.8,7,2-4.7,5.6,1
		c-0.2-5.4,1-4.8,3.8-3c1.6-0.5,0-4.6,2-5c-0.2,1.8,0.6,2.7,1.8,3c1.6-1.2,0-5.8,2.8-5.8c0,1.5,0,3.4,2,3c-0.6-5.8,1.2-3,3.6-2
		c1-2.7-1.8-6,0-6c3-0.5,0.4,5,3.8,4c0.2-4.2-1.8-6-4.7-7c-12.3,11.2-31.6,15-33,37.7L131.8,215.2z M218.4,183.4h4
		c-1.2-3,1.4-2.4,1.8-4c-1-1-5.2-3.7-6.6-1c3,1.2-1.4,3.8,1,5H218.4z M298.4,179.4c-0.3,2.4,1.8,2.2,1,5h4.7c-1-3.2,0-2.3,0-6
		c-2.8-0.7-2.7,1.7-5.6,1H298.4z M290,186.4c3.6-0.8,4.5,1,7.6,1c-0.7-2.7-1.5-5-3-7C292.6,181.9,291.3,184,290,186.4z M224.2,186.4
		c2,2,5.2,0.4,6.6-1c-0.2-2.6-1.4-4-3.8-4C227.4,184.4,224.5,184,224.2,186.4z M275,182.4C275.6,183,274.6,182,275,182.4z
		 M366.2,191.4v4c3.6,0.7,1.2-5,4.7-4c0,2.4-1.7,3,0,4.8c3.4,1.6,0.6-3.3,3-3c1.6,1.2-0.6,6.5,3.6,5c0.2-2.3-1.5-3-0.8-6
		c-4.8-4-15-2.6-16-10.8c-2-0.4-2.5,0.7-3.8,1c2.2,3.3,1,3-1,6c3.3-1,5,0.8,3,3c3.4,1,1.4-3.8,4.6-3c-0.7,0.8-1,2.2-1,4
		c2,0.3,2.6-0.8,3.8-1H366.2z M200.7,198.2c4-1.5,4.2-12,2.8-15.8c-0.3,6-3.7,8.6-2.7,15.8H200.7z M32.2,189.2h-1c0.3,1-0.3,1-0.8,1
		v2C32.4,192.7,32.2,190.9,32.2,189.2c2-0.7,1.6-4.2,3-5.8c-3.5-0.6-3,3-3,6V189.2z M251.5,184.4C252.2,185,251.2,183.9,251.5,184.4
		z M249.7,185.4c-0.8,0.2-2,0-2,1C248.5,186.1,249.7,186.4,249.7,185.4z M70.9,252.7c3,1.6,11.2,1.6,14,0c-0.7-22.4,1.4-46.8,0-66.4
		c-8.5,18-13.8,39.6-14,66.5V252.7z M251.3,188.3c1.5,0,3.3,0.3,3-2h-2C252.3,187.3,251.5,187.6,251.3,188.3z M275.8,186.3
		c-0.7,0.4-1.8,0.2-2,1C274.8,187.3,275.8,187.3,275.8,186.3z M228.8,191.3c1.8,2,4.4,0.6,6.6,0c0.7-6.8-5.4-2.3-6.5,0H228.8z
		 M272.1,188.3c-0.4-0.7-2.5-1-3,0C268.6,190.7,272.9,190.6,272.1,188.3z M279.6,187.3c-0.7,0.4-2,0.2-2,1
		C278.4,188.3,279.6,188.3,279.6,187.3z M287.1,192.3c2,0.8,4.7,3,6.6,1c0-3.8-3-4.7-5.6-6C288.4,189.8,286.3,189.6,287.1,192.3z
		 M250.4,189.3C247.4,186.3,247.7,193.1,250.4,189.3z M252.4,192.3c6.3-1.4,2.6,8,2,13c6.5,4,9.5-4.8,13,1c1.3,0,1.4-1.3,3-1
		c-1.4-4-1-8-2-10c0.6-1.3,3.6,0,3.8-2c-2.5-0.3-3.3-2.4-5.7-3c-1.6,9-9.6-1.5-14,2H252.4z M275.9,191.3c-1,0.2-2.7,0-2.8,1
		C274.1,192.3,275.8,192.6,275.9,191.3z M277.9,193.3h2.7v-2h-2.8v2H277.9z M152.7,207.3c1.5-1.7,0.7-6,1-9c-5,1.4-3.4,9.7-5.7,14
		c-2.2-2.8-1.5-5.6,0-9c-13.3,7,5.2,21.4,10.3,27.7c0-14,3.3-25,3.7-38.6c-7.7,0.3-4.6,11.8-9.4,15L152.7,207.3z M248.7,194.3
		C249.3,195,248.2,194,248.7,194.3z M429.3,260.7c4.7,1.7,6.8,0.2,12,1c2-19.8-0.6-52.6-11.2-68.3c0,25,0.3,48.7-1,67.4L429.3,260.7
		z M235.3,195.3C236,196,235,194.9,235.3,195.3z M353.9,197.3c0.5,8.8-1,16-1,23.8c0.2,5.7,0,16,4.8,17.8c-2.5-12.3,2.3-24.2,2-41.6
		c-1.8-1-3-2.4-4.8-3C354.9,195.6,353.6,195.7,353.9,197.3z M483.7,198.3c0.3-2.2-0.2-3.7-1.8-4
		C481.9,196.3,482.5,197.7,483.7,198.3z M254.3,195.3c-0.8,0.3-2,0-2,1C253,196.1,254.3,196.3,254.3,195.3z M273.9,197.3
		c1.7,0,2.5-0.7,3-2C275.3,195.5,273.5,195.3,273.9,197.3z M26.5,206.3c3.7,0.2,4.8-7.4,2.8-10C28,199.3,27.1,202.6,26.5,206.3z
		 M280.5,196.3c-0.7,0.3-1.8,0-2,1C279.5,197.1,280.5,197.3,280.5,196.3z M285.2,201.3c2.8-0.7,2.7,1.7,5.6,1c-3-2.6-2.5-4-4.7-6
		c0.3,2.4-1.8,2.2-1,5H285.2z M358.5,236c6.8-9.7,15.8-17.3,20.8-28.7c-6-2.4-6,6.7-8.5,5c0.2-5,6-10.3,0-13
		c-2.6,4.2-1.2,12.5-5.6,15c0.2-6,2.4-14-1-18h-3C362.4,211.6,359.5,222.8,358.5,236L358.5,236z M381.3,201.3c-0.2-2.5-0.3-5-3-5
		C377.9,199.5,379.5,200.3,381.3,201.3z M238.3,198.3C238.8,199,237.8,197.9,238.3,198.3z M243.8,198.3
		C244.4,199,243.4,197.9,243.8,198.3z M248.5,198.3C249.2,199,248.1,197.9,248.5,198.3z M271.1,198.3
		C268.8,201.7,274.3,195.9,271.1,198.3z M289.9,198.3C290.5,199,289.5,197.9,289.9,198.3z M244.9,203.3c-0.3-2.8-1.8-4.2-4.8-4
		c-0.2,3,2.4,3.4,4.7,4H244.9z M253.2,199.3c-0.8,0.2-2,0-2,1C252,200.1,253.2,200.3,253.2,199.3z M274.8,201.3c1.6,0,2.4-0.8,2.8-2
		C276.1,199.3,274.3,199.3,274.8,201.3z M248.4,200.3c-0.7,0.2-1.8,0-1.8,1C247.3,201.1,248.4,201.3,248.4,200.3z M238.1,205.3
		c5.4,0.7,0-3-2-3C235.6,204.5,237.9,203.7,238.1,205.3c-5,1.3-2.7-4.6-6.7-4c-5,3.2-10.8,5.7-11.3,14c9.7,0.2,18.8-0.2,26.4-2
		c-0.3-5.5-8-3-8.5-8H238.1z M278.4,204.3c1.8,2.6,8.3-2,3.8-3c-0.2,2-3.4,1-3.7,3H278.4z M272.8,203.3c0-1-1.6-1.3-2,0
		C272,203.3,272.4,204.7,272.8,203.3z M246.5,204.3c-0.8,0.2-2,0-2,1C245.3,205,246.5,205.3,246.5,204.3z M282.2,208.3
		c3-0.4,4.7-1.8,5.8-4c-2.8,0.3-4.7,1.7-5.7,4H282.2z M279.5,213.3c5.8,3.3,22.5,5,29.2,1C301.1,203,288.3,203.3,279.5,213.3z
		 M247.5,207.3C243.5,206.3,247.3,210.3,247.5,207.3h2v-2C247.8,204.9,247.5,206,247.5,207.3z M278.5,205.3c-0.7,0.2-1.8,0-1.8,1
		C277.4,206,278.5,206.3,278.5,205.3z M159.3,235c-0.5,6.7-1.6,18.2,1.7,20.8c5-2.6,3-10.8,3-17c0-12.4,0.2-24.2,0.8-31.6
		c-0.2-0.8-0.8-1.2-2-1c-0.7,8.4-3,19.2-3.6,28.7L159.3,235z M244.8,206.3c-0.8,0.2-2,0-2,1C243.6,207,244.8,207.3,244.8,206.3z
		 M257,207.3c-2.4,1-4.5-3-5.6,0C252.1,208,256.7,209.3,257,207.3L257,207.3z M275.8,206.3c-0.7,0.2-1.8,0-2,1
		C274.8,207,275.8,207.3,275.8,206.3z M266.4,209.3c2.8,0,5-0.3,5.8-2c-2,0.5-6.6-1.7-5.7,2H266.4z M278.7,209.3h2v-2h-2V209.3z
		 M488.7,213.3c-0.6-2.6,0-6-3-6C487,208.9,485.4,213.5,488.7,213.3z M195.9,209.3c0.7,6-4.2,11.3-1,16.8c2.3-5.6,1.7-14.2,5.8-18
		c-2.2-0.2-3.7,0.3-4.8,1V209.3z M258.9,213.3c2-0.7,6.6,1.5,5.7-2c-4.6,3.2-2.2-2.6-5.6-3c0.6,3,0.6,1.8,0,5H258.9z M261.9,210.3
		h2.7v-2h-2.8v2H261.9z M19.9,251.8c0,9,1,18.6,4,24.8c-0.7-22-0.4-50.2,2.7-67.4c-4,12-6.6,28.5-6.6,42.5L19.9,251.8z M257.1,212.3
		c-1.7-2-4.7-2.4-7.5-3C249.6,212.3,255.6,214.1,257.1,212.3z M277.8,209.3c-0.7,0-2,0-2,1C276.6,210,277.8,210.3,277.8,209.3z
		 M266.5,213.3c3,0,5.8,0,6.7-2C270.7,211.6,268,211.7,266.5,213.3L266.5,213.3z M134.9,228c7.7,8,16.5,15,21.6,25.8
		c0-4,2.6-10.4,0-14c-0.3,1.4-1.2,2.2-2.8,2c1.5-2.7,2-11.4-2-11.8c-2.5,0,1,6-1.8,6c0-8-2-13.7-6.5-17c-2.2,4.3-1,9.8-2,13
		c-4-3-1.5-14.2-1-18.8c-1.2-0.2-1.3-1.4-2.8-1c-2,4-3.4,8.8-2.8,15.7L134.9,228z M275.9,220c3.6,3,9.3,3.6,14.2,5c1-2.4,1-6,5.7-5
		c-0.5,2.6-2.3,3.6-3.8,5c9.3,0.3,17.4-0.8,25.4-2c-6-11-28.8,0.8-38.7-6.8v-1c-3-1.5-9.2-1.7-11.2,1c2.7,1.4,3.8,4.6,8.5,3.8H275.9
		z M256.3,225c4.8,1.3,5.5,2,11.3,1c0-3,1.2-4.7,2-7c-5.6-2.7-14.4-5-13.2,6H256.3z M239.3,239c4.5,4.5,9.6,8.3,18,9
		c2.2-5,2-12.6,1.8-20c-3-0.7-6-1.5-4.7-7c-9.4,1.6-15,7-15.2,18H239.3z M488.7,222C487.9,228,489.2,218,488.7,222z M271.3,223
		c-0.6,5-5,6-9.4,7c-0.8,6.5-2,12.3-2.8,18.8c2.2,0.7,5.6,5.3,8.5,2c-2.4-2.7-5.6-4.6-4.7-11c3.7-4,10.5-4.7,15-7.8
		c2.7,2.6-1,2.2-0.8,5c1.7,2.5,3.7,4.6,8.4,4c2.2-3.5,2-9.4,1-14C281.9,225.6,275.3,221.8,271.3,223z M222.3,252.8
		c9-15.7-6-37-17.8-21.8c4.8-1.3,10.5-0.8,14,0c-1.5,3.2-2.2,11.4,2,11c-0.5,1.4,1,5-1,5c-1-1.5-0.8-3.8-2.8-4c0,5.7-6.4,5-7.5,9.8
		C212.9,256.8,218.4,255.3,222.3,252.8L222.3,252.8z M226.3,241.8c5.6-2.4,8-8.6,9.3-15.7c-4.2-1.3-3,3.4-5.6,4c0.3-2.3-0.2-3.8-2-4
		c-1.5,4.4-3.8-1.8-5.5,1c2.5,3.5,3,9,3.7,14.8L226.3,241.8z M303.3,229c3.3,6.7,4.4,15.4,6.6,20.8c6-5,13.8-8.5,14-19.8
		C320.4,225,307.9,224.6,303.3,229z M488.7,229h1.8v-2h-1.8V229z M292,233c2,4.8,7.7,5.8,6.6,14c2,1.5,7-0.2,5.7,4.8
		c-2,2-3.6-1-5.6-2c-0.3,3.3-4,3-3.7,7c19.2,9.8,12.3-36.2-2.8-23.8H292z M201.7,237c3,2.5,7,8.4,2.8,12.8
		C223.1,251.3,212.2,221.8,201.7,237z M498.1,235c2,0.3,3.5-0.3,3.7-2C500.2,233.2,497.1,232,498.1,235z M267.6,241
		c4,0.8,4.8-1.7,5.7-4c-3.2,0-6.3,0-5.6,4H267.6z M288.4,252.8c9.6,3.8,11-9.3,5.6-14.8h-5.6C287.6,242.6,291.6,247,288.4,252.8z
		 M199,244.8c-1,1.6-3,2-2.8,5c5.7,2.7,9.6-2.2,7.5-9c-2.4-1.6-9.8-3.3-13-1C193.4,241.6,197.3,242.1,199,244.8L199,244.8z
		 M362.7,244.8c7.7,5.2,17,8.8,22.7,16c0.4-3.2-1.7-3.6-1-7c-2.6-0.2-4.7,0-3.7-6c-3.7-1.5-0.4,4.3-3,4c-1.3-1.4-0.7-5-0.8-8
		c-3.2-0.6-1.6,3.7-3.8,4v-6c-3.7-1-0.4,5.6-3.7,5v-6c-3-0.7-1.3,3.4-3.8,3c0-1.2,0-7-1-4C365.9,243.8,362,241.8,362.7,244.8
		L362.7,244.8z M352.4,258.8c4.6,2,15,3.2,20.7,1c-9-4.4-14-13-20.7-20C352.4,239.8,352.4,258.8,352.4,258.8z M360.9,240.8
		C361.5,241.6,360.5,240.5,360.9,240.8z M280.9,245.8c-2.2,2-8.4-0.2-10.3,2c2.8,0.8,3,2,1.8,5c6.8,1.4,17.8-1.2,15-10
		c-4.5,0.5-6.8-1.3-10.3-2c-0.8,3.8,5,0.8,3.7,5H280.9z M489.9,268.8c3-7,4-22.2,0-28C490.9,250.6,488.1,261.6,489.9,268.8z
		 M192.5,242.8c0.4,2.8-3.5,1-3.8,3h5.7c0.3-2-0.2-3-2-3c0-3-3.8,1,0,0H192.5z M244.2,270.6c0.2-0.8-0.3-1-1-1c0.5-2.8,4.3-5,6.7-3
		c0-2.7,1.7-4,2-7c-3.7,1-6.3,1.7-6.7-2.8c-0.2-4.8,5.5-3.5,5.6-8c-5-0.4-6.2-5.2-11.2-6c-9.3,11.7-23.3,18.4-28.2,34.8
		c21-4.7,27,15,44.2,17.8c2.6-11.2,0.5-24.3-2-35.6c-3,5.7,0.6,15.7-4.6,20.8c-0.2-4.8,1.7-7.5,1-12.8c-3.4-0.6-2.3,3.5-5.7,3
		L244.2,270.6z M268.7,246.9c0-2.6-1.4-4-3.8-4C265.3,245.2,265.5,247.5,268.7,246.9z M325.1,246.9
		C325.7,248.3,326.3,246.9,325.1,246.9v-1c-0.5-0.6-4.4-2.3-4.7,0C322.7,245.5,322.4,247.7,325.1,246.9z M195.3,247.9
		C187.3,246.6,191.3,250.9,195.3,247.9z M323.3,248.9c-6.2-3.3-9.4,2.6-13.2,5c2,26.5-5,54-6.6,76.2c6.2-9,16-14.2,24.5-20.8
		c-1-8.3-2-16.4-6.6-20.8c0.5,9.7-3,15.2-5.7,21.8c-2.7-20.8,19.7-40.2,7.6-61.5V248.9z M366.5,250.9c0,0.8,0.4,1,1,1
		c0,1,1.7,0.8,2.8,1c-0.2,0.7,0.4,0.8,1,1c4,4.2,8.2,8.4,12.2,12.8c-1.4-7.2-6.3-10.6-12.3-13c0.2-0.7-0.3-0.8-1-1
		c0-1-1.6-0.7-2.7-1c0.2-0.7-0.4-0.8-1-1c-0.5-1.3-1,0.2,0,0V250.9z M178.5,326.1c1.2-18.4,2-33,1.8-56.5c-7.4,0.6-12.4-1-18,0
		c0.3,19.8,0,39-1,57.5c5.6-0.5,13,1,17-1c-0.6,4.3,7.2-0.2,5.7,5c-2.2,1.3-7-0.2-6.6,4c17,13.8,31.6-4.4,30-24
		c-1.3-19.2,4.3-44,0-57.3c-21-9.2-20.4,20.3-23.4,36.6c3,0.2,3.6,3,7.5,2c0.3-4-0.4-9,3-9.8c-0.5,9.2-1.8,17.5-5.8,22.8
		c2,9.6,20,11.6,13.2,23.8c-3-5.3-3.8,5.2-7.5,0c-0.2,2.8,0.8,6.8-2,7c-3-3-8,1.5-10.3-1c3-1.3,4.7-3.8,9.4-3
		c3.8-9.8,3-19.6-4.7-23.8C184.5,314.7,183.8,322.8,178.5,326.1L178.5,326.1z M248.9,256.8c3.8,0,5.4-2.3,6.6-5
		C251.8,251.8,248.5,252.3,248.9,256.8z M265.9,262.8c-0.3-6-3.7-8.8-8.5-10C255.9,257.1,259.4,263.8,265.9,262.8z M278.1,257.8
		c6.4,1.5,8,8,14,10C293.8,256.5,283.1,247.8,278.1,257.8z M296.1,274.6c4.3,3,5-5,8.3-6c5,5-1,10.8-4.7,13c16.3-1,3-16,8.5-22.8
		c-7,2-11,7.4-12.2,15.8c-9.5-7-18.4-19.6-31-19.8c1.5,1.7,2.8,3.6,2.8,7c-5.4,1.7-3.4,8.8-5.6,11.8c-1.3-3.6-0.8-9-4.7-10
		c2,9.5,0.2,23,4.7,29.8c8-9.3,29-23.7,35.8-3.8C298.5,283.4,297.5,278.8,296.1,274.6L296.1,274.6z M72.1,257.8c6-1.7,13,3.7,16-1
		C81.8,257.3,76.4,254.1,72.1,257.8z M493.3,270.6c2-3.8,6-2.4,10.2-2c6.5-6-0.4-12.5-9.4-12.8c3.4,6-3,10.8-1,14.8H493.3z
		 M96.1,258.8C96.7,260.2,97.3,258.6,96.1,258.8v-1h-5.6c-1.6,1.6-0.8,5.8-1,9c22,1.7,53.4,1,68.7,1v-8c-15-0.5-44.8-3.6-60.3,0
		c12-0.8,23.6,0.5,34,1c7.4,0.3,17-2.7,22.5,3c-13.5,3-26.4,1-47,1c-4.6,0-12.3,2.3-15-3c-1-3.3,3-1.5,3.6-3H96.1z M176.1,259.8
		c1.6-0.2,6.5,0,3.8-1c-5.2-2-16.2-2-19.8,1C166.1,259.5,172.5,260.1,176.1,259.8z M353.9,263.8c-3-4-16.2-2.2-20.7-1
		C338.2,264.8,347.2,263.1,353.9,263.8L353.9,263.8z M70.7,264.8c3.6,1,14.8,2.5,17-1C82.9,263.3,75.1,262.1,70.7,264.8z
		 M330.3,306.3c1.5-13,2-35.3-1.8-42.6c-5,14.5-3.7,29.8,2,42.6H330.3z M356.7,271.6c21.2,2,47.3,0.2,66,2c-0.4-3.4,0.6-8-1-10
		h-12.4c0.4,5,11.2-1,10.5,5c-9.7,4.3-23.3,1.6-34.8,1c-9-0.4-20,3-25.4-3c3.7-5,14.7,1,17.8-3c-6.8-2-13.5,1-19.6-1
		c-1.6,1.8-0.8,6-1,9H356.7z M391.5,263.6C385.5,262.6,389.5,266.6,391.5,263.6z M404.7,263.6C398.7,262.6,402.7,266.6,404.7,263.6z
		 M407.5,263.6c-0.7,0.3-1.8,0-1.8,1C406.4,264.6,407.5,264.6,407.5,263.6z M429.2,263.6C423.2,262.6,427,266.6,429.2,263.6z
		 M433.8,263.6c-1.4,0.3-3.5-0.3-3.8,1C431.4,264.6,433.5,265,433.8,263.6z M160,266.6c5.7,2.4,15.4,0.4,22.6,1
		C180.6,262.8,163.6,263.6,160,266.6z M21.7,294.4C22.3,295.9,22.7,294.4,21.7,294.4c0.5-3.4-3.3-2.3-2.8-5.8c7.8-6-3-16-1-21.8
		c-4.6,2.3-9-1-12.2,2c0.3,2.3,1.5,3.7,1,7c3.7,2,6.7-0.4,11.2,0c6.6,8.3-4.8,10-10.3,11.8c-0.5,3,1.7,3.5,1,7c5.6,2.5,8-2,13,0
		L21.7,294.4z M71.7,269.7c-0.6,4.8,8.3-0.3,9.3,3c4.8,16.6-5.5,37.2,3.7,48.6c0-19.3,1.3-30.5,1-52.6
		C83.1,267.7,72.7,265.7,71.7,269.7L71.7,269.7z M88.5,269.7c-1.8,21.2-2,39.3-2,60.5c20.2,1,47.7,3.6,70.7,1
		c3.5-19.2,2.3-37.6,2.8-60.5C135.2,269.4,108.2,268.9,88.5,269.7L88.5,269.7z M354.8,268.7c-7.5,0.6-17.5-1.4-23.5,1
		c6,0.7,19.2,3,23.6-1H354.8z M440.4,270.7c-3.5-2.3-11-0.3-16-1C426.4,273.7,438.4,272.5,440.4,270.7z M334.1,272.7
		c-1.6,18.3-1.5,38.2-2,57.5c6.6-0.4,12.2,0.3,17.8,1c1.6-20.7,1.7-37.3,2-58.5c-4.5,0.8-11-0.5-18,0L334.1,272.7z M71.5,274.7
		c2,11.4,3,24,7.5,32.7c2-9,0.2-22,0.8-32.7c-3.2-1.8-4.5,0-8.4,0H71.5z M487.3,287.7c2.2-4,2.4-9.4,1-14
		C487,276.7,486.7,285.9,487.3,287.7z M354.7,274.7c0.5,21-4.4,45.2,1,61.4c26,0.3,38,1.2,66.7,1c2-22.7,0.5-39.5,2-61.4
		C399.2,276,376.4,275.5,354.7,274.7L354.7,274.7z M426.2,275.7c0,17.6,0,37-1,50.5c4.3-2,3.7-8.5,4-12c0.6-10.2-1-21.8,0-35.5
		c3.3-1,10.8,2.2,11.2-2c-1-4-11.6-2-14-1L426.2,275.7z M491.2,300.5c-6,3-8.6,11.6-3.8,18c-5,3-10.7,9.3-7.5,17.7
		c-3.4,4.7-8.2,8-6.6,17.8c-7.5,0.7-8.6,7.6-7.4,15c-2.2,2-6.2,2-6.6,5.8c7.2-3.2,15.2,7,18-4c-2.2-4-10-2.2-9.5-8.8
		c0.6-2,2.5-2.7,4.7-3c4.6,0.8,5.8,4.7,10.3,1c3.5-7.4-6.6-7-6.6-14c0.6-2,2.8-2.8,4.6-3.8c3.2,0,3.2,3.2,6.6,3c1-1.4,2.5-2,3.8-3
		c1.5-5-4-5.5-1-9c-3.2-1-8.5-0.2-7.5-6c3.4-5.8,16,2,15-9.8c-2.5-3.7-9.5-2.6-10.3-8c0.4-3,2-4.5,4.7-5c2,3.3,7.6,1.7,10.3,0v-7
		c-3.8-2.2-11-1-11.3-7c0.7-4.7,6.2-4,10.3-2.8c0.6-1.5,1.5-2.4,2.8-3c1.2-4.4-1.4-5-1.7-8c-4.8,0.8-7.6-0.5-10.4-2
		c3.3,9.3-7.2,16.4-1,26L491.2,300.5z M211.7,280.7c-1.5,24.2,12.6,40.3,14.2,64.4c16-0.7,9-47.2,3.7-55.4c0-2.7,3-2.2,2.8-5
		C227.4,281.7,219.6,278.1,211.7,280.7L211.7,280.7z M430.1,313.3c6.2-7.8,7.6-20.5,9.4-32.8h-8.4c0.4,13.5-0.7,21.6-1,32.7V313.3z
		 M274.9,288.3c1.4,0,0.8,2.4,1,4c-10,4.4-7.8,17-11.4,28.7c-2.3,7.6-8.3,12.2-8.4,19.7c7.7,3,7.6,14.3,17,15.8
		c2-9.7-7.5-15.2-11.4-21.8c3.5,1,4.3,4.7,8.5,5c1.2-24,29.3-32.7,20.6-57.5c-7-3-13.7,1-16,6L274.9,288.3z M34.9,330.9
		c-3.4-12.7-7-36.4-11.2-48.6C25.4,296.9,26.7,320,34.9,330.9L34.9,330.9z M484.8,303.3c3-1.5,4-10.2,2-13.8
		C485.2,292.5,482.8,299.8,484.8,303.3z M181.8,314.3c2.6-5.6,5.6-10.8,5.7-19c-2-0.8-2.7-3-5.6-3
		C180.5,297.5,180.3,309.3,181.8,314.3L181.8,314.3z M13.3,303.3c-2.6,3-1.3,6.4-1,11c6.2,2,8.7-2,14.2,0c-4-2-1-11-4.7-13
		C20.5,304.3,16.2,304.7,13.3,303.3z M324.7,337c-4,1.7-9.8,6.8-13,6c2.2-4,6.8-5.3,11.2-7c1.6-5.2,1-14.5,0-19.8
		c-6.5-0.2-2.3,10-3.8,12.8c-3.8,6.8-16,9-14,18.8c6.8,2.6,9.2-4.7,12-3c-0.8,5.3-5.6,6.5-12,6c4.8,11,1.6,25.5-2,35.6
		c12.6-4.6,17-17.7,25.4-26.7c8.5-0.7,19.4,1.3,26.4-1c-5-4.8-7.5-12-11.3-17.8c-8-1.3-15.4,2.4-19-4c7-3.4,7-19.3,4.8-28.7
		c-7.8,5-1.5,18.7-4.6,28.7L324.7,337z M495,309.3c-1-1-2.5-1.3-4.7-1C488.9,311.3,495.3,310.9,495,309.3z M480,322.1
		c2.5-1.6,3.2-5.2,3.7-9c-1.2,0-1.3-1-2.8-1c1.2,4.4-3.6,7.4-1,10H480z M18,332.1c5.3,1,10.5-1.7,14-2c-3-2.5-6.4-4.8-4.6-10
		c-5.5,2-14.3,4.2-9.3,12H18z M302.2,340.1c6.6-2.6,9.8-8.8,16-12c0.3-3-1.8-3.5-1-7C309.5,324.7,302.8,329.1,302.2,340.1z
		 M158.2,334.1c5.4-1.6,17,3.5,17-4C170.7,328.8,157.2,326.5,158.2,334.1z M473.2,341.1c1.7-2,6.5-9.4,2-11
		C475.8,334.4,470.6,337.7,473.2,341.1z M41.5,346.9c-2-5-2.2-12.2-6.6-15C36.9,336.9,36.2,345.2,41.5,346.9z M329.3,336.9
		c8.5-0.3,20,0.7,25.6,0c-2.5-7.6-18-1.4-24.5-5c0.5,2.5-1.6,2.3-1,5H329.3z M92.3,340.9c7.8,0.6,15,0.5,15-7H88.6
		C89,337.3,91.3,338.4,92.3,340.9L92.3,340.9z M109.3,334.9c-1,2-2,4-2.8,6h14c0.5-2.5,3-3,3-6C118.5,333.5,116.5,335.5,109.3,334.9
		z M123.3,340.9c6,1.6,19.5,3.5,18-6C133.9,335.5,123.3,332.5,123.3,340.9z M141.3,340.9c3.7,1.7,10,0.8,15,1c-0.2-1.8,1-2,1-4
		C153.1,333.6,142.3,333.9,141.3,340.9z M55.7,382.6C56.2,384,56.7,382.6,55.7,382.6c-6.4-5.5-6.3-17.8-14-21.8
		c3-11.3-8.2-14.2-8.6-24.8c-1.6,4.6-7.6,4.6-10.4,8c-0.6,3.6,2,3.7,2,7c6,1,7-3.2,13-2c4,8.4-5.7,9.2-8.4,13.8
		c2.6,0.5,2.7,3.8,3.8,6c4.8,1,5.6-2.2,8.5-3c4,0,5.6,2.6,6.5,6c-2.3,1.3-2.8,4.8-7.5,3.8c-1.6,4.8-1.6,5.8,1,10c5-0.7,7-4.5,12.2-5
		c0.4,1,0.8,1.8,2,2H55.7z M158.2,342c3.4,0.7,4.5-1.2,4.6-4C159.2,337.2,159.2,340,158.2,342L158.2,342z M179.8,343
		c-4-1.5-3-4.3-6.6-5c-10.2-2-15.2,14-17,19.8h22.6c4.2,10,5.7,23,19.8,22.8c-4.3-17,5-29.2,6.6-39.6C198,339.2,189,343.6,179.8,343
		L179.8,343z M351,341c-0.7,8,10,4,16,5C367.6,334.8,358.3,341.7,351,341z M202.3,355.8c1.3,7.8-3,10-1.7,17.8c1.3,1.6,4.8,1,7.5,1
		c0,2.4-1.6,3-1,6c29.5-1.2,59.8,0.8,87.5,4c4.4,0.4,3.8-8,7.6-5c0.3-12.5,3.3-27-5.8-35.7c-6.5,1.3-14-0.7-22.6,0
		c-1.4,3.6,4.7,6.7,3,14c-1.5,0-1.7,1.5-3,2c-16.3-1-12-23.6-34.8-18c-0.2,3.2,1.7,4.2,1,8c-5.8,4.5-14,19.8-23.6,11
		c1.4-4.3,4.2-7,5.7-11c-1.2-2-3.8-2-4.8-4c3-2.5,7.8,2.5,6.6-5c-15.2-7.3-17,8-21.7,15L202.3,355.8z M385,343.8
		c-1.5-5.6-10.4-3.5-17-3.8c0,6.5,13,8.2,17,4V343.8z M388.7,345.8c4-1,12.3,2.4,13.2-2c-1-5.8-10-3.3-16-3.8c0,3,2,3.8,2.8,6V345.8
		z M403.7,342c1.2,0,1,1.5,1,3c2.7,0.5,12.2,3,13.2-1v-3c-5.5,1.6-11.7-3.7-14,1H403.7z M225,348c0.4,7-5.2,7.6-5.6,13.8
		c9.7-2.5,19.6-11.5,18-19.8C231.8,342.4,230.6,347.4,225,348L225,348z M350,344c-0.4-0.6-2.7-4-3.6-1c0.7,0.5,3,4,3.8,1H350z
		 M98,350c1-2.3,3-3.4,3.8-6c-1.4-1.6-5-1-7.6-1c0,3.6,1.4,5.6,3.7,7H98z M99,353.8c6.2,0,5.5,1.2,12.2,1c2.2-3.5,5.3-6.2,6.5-11
		c-9.7-1.8-17.2-0.8-19,10H99z M115,353.8c10.7,2,19.5,1.5,21.6-10C124.6,342.1,117,345.1,115,353.8L115,353.8z M133.8,354.8
		c5.4-0.2,12,0.8,16-1c-0.2-4.8,3.8-5,3.7-10C141.5,341.8,135.5,346.1,133.8,354.8z M150.8,354.8c6,0,5.5-6.6,8.4-10h-4
		c-0.2,4.8-3.8,6-4.6,10H150.8z M356.8,357.8c-0.6-4-3.3-11-6.7-9c3,2.3,3.7,6.8,6.6,9H356.8z M362.4,358.8c5-1.2,7,0.3,13.3,0
		c-0.7-9.3-11-13.6-20.7-10c2,4,4.4,7.2,7.5,10H362.4z M373.8,349.8c2.2,2,4,4.5,4.7,8c3.6,0.5,7.8,1.2,14.2,1c0.8-9.4-12-14-18.8-9
		H373.8z M391.6,348.8c0.3,5,4,6.4,5.7,10h12c-0.4-4.5-2.8-6.8-4.6-10C399.5,350,394.5,347,391.6,348.8L391.6,348.8z M467.9,352.8
		c0.8-1.7,2.2-2.8,2.8-5C468.2,347.3,465.9,352,467.9,352.8z M412.3,353.8c1-1.4,2.7-2.4,2.8-5h-6.6
		C408.2,352.1,409.5,353.8,412.3,353.8L412.3,353.8z M50,362.8c-2.7-2.8-3.4-7.7-6.6-10c0.6,4.6,2.6,12.6,6.7,10H50z M106.5,362.8
		c2-1,2.8-3,2.8-6h-7.5C102.8,359.4,103.3,362.4,106.5,362.8z M108.5,366.8c1.2,4,8,2.6,13,3c1.6-4.8,5.5-7,6.6-12
		C117.6,356.1,106.9,359.1,108.5,366.8L108.5,366.8z M124.3,369.8h15c1.2-5.2,5.3-7,6.7-12C133,355.8,126.6,360.5,124.3,369.8z
		 M141.3,369.8h5.6c1-4.6,5-6,4.7-12C145.1,358.5,144.6,365.5,141.3,369.8z M364.3,361.8c2.2,9,8.5,14,21.6,12
		C382.2,364.1,378.2,359.1,364.3,361.8z M383.1,361.8c-1.2,3.3,5,7.2,5.6,12h9.4c0-2,0.8-2.7,2-3
		C400.6,361.8,390.1,359.5,383.1,361.8z M399.1,361.8c0,5.6,7,4.3,7.5,0C403.2,361.4,402.1,360.2,399.1,361.8z M367.1,373.6
		c-1.7-5.5-3.4-11-9.4-11.8C356,367.1,359.4,375,367.1,373.6z M457.4,370.6c-0.8,0-0.6,1.3-0.8,2c-3,0.3,1,4.2,0,0c1,0,0.7-1.2,1-2
		c4,0.5,7-5.7,4.6-8.8c-1.6,3-3.7,5.3-4.7,9L457.4,370.6z M152.7,363.6c-1,3-5.4,6.4-3.8,9c9.7,0.4,16.3-0.4,23.5,1
		c7,35,56.8,49,99.8,43.6c32-4,54.5-22,65-41.7h22.5c-0.5-14.3-19.7-9-33-10c-3.5,10-9.5,17.2-18,22c0.5,4,5.8,3.2,5,8.8
		c-3.5,10.4-11.8,3.6-16-1c-25.5,14.7-76.4,12-99-3.8c-5.4,3.2-11.6,3.7-14-3c5.4-7.6-4.3-14.6-6.6-24.8c-10.5,0-15.8-0.5-25.4,0
		V363.6z M69.9,395.4c5.6,10.4,12,20,22.6,25c0,0.7,0.4,0.8,1,1c1.4,5.4,6.3,12.4,12.2,9.8c-5.2-2-7.7-7-12.2-10
		c0.2-0.7-0.4-0.8-1-1c-7.7-8-14.2-17.2-22.5-24.7c-6.4-10-12.7-20.2-19.8-29.6c3.8,12.8,11.7,21.4,19.8,29.7L69.9,395.4z
		 M118.9,371.8h-5.7C112.5,376.1,120,377.8,118.9,371.8L118.9,371.8z M117.9,379.8c2.7,2.7,8.8,1.8,14,2c1-4,4.3-5,3.8-10
		C126.3,370.8,118.9,371.8,117.9,379.8z M133.9,381.8c5.2,0.8,7.8-1,10.3-3c0.5-3.3-0.6-4.7-1-7
		C137.6,372.4,136.2,377.4,133.9,381.8z M366.1,386.3h9.5c-0.4-5.3-4.6-6.4-5.7-11C359.7,373.5,362.5,382.8,366.1,386.3z
		 M380.3,386.3c5.3,0,8.6-2,10.3-6c0-7.5-10.4-4.2-17-5C374.6,380.3,377.4,383.3,380.3,386.3z M391.5,376.3
		C394.7,379.3,394.5,372.8,391.5,376.3z M434.8,402.3c-0.8-0.3-1,0.3-1,1h-1c-1.5,1.7-3.2,3.6-4.6,5.8c-1.4,0.6,0,1.2,0,0
		c3.4-0.3,5.2-2.3,5.6-6c0.8,0.2,1-0.3,1-1c9.5-5,13.5-16,19.7-24.7c-8.3,6.4-13,16.7-19.8,24.8L434.8,402.3z M456.5,383.3
		c-10,2.3-9,16.5-18,20c6.7-0.5,7.4,5.4,14.2,4.8c-0.2-2.5,1.4-3,2.8-4c0-6.8-5.4-4.7-6.6-11.8c1-1.5,1.4-3.2,3.8-3
		c4.5,0.2,5.6,4,11.3,3c6-6.2-3.2-11-7.5-15C456.5,377.3,456.5,383.3,456.5,383.3z M140.3,388.3c7.8,0.5,17.3-1,23.6,1
		c18.7,63.4,158.6,63.4,179.7,2c7.2-0.7,17,1.3,22.5-1c-1.7-11.3-19.8-10-30-9c-21.5,56-151,58.2-165.7-3h-24.3
		c-1.3,3.7-8,5.7-5.7,10H140.3z M187.3,386.3c3,0.4,3.8,2.7,4.8,5c4-0.5,4.5-4.5,5.6-8c-3.6-2.6-9,0-10.3,3H187.3z M201.5,382.3
		c-0.7,0.3-1,1-1,2c-0.7,0.3-1.8,0-1.8,1c21,16,74.8,17.8,99.7,4C268,386.5,234.7,389.6,201.5,382.3L201.5,382.3z M48.1,396.3
		c2.7,0,4,1.7,3.8,5c3.5-0.2,2.7-1.2,5.6,0c0.6-5.5,7.6-4.6,10.4-5c-5.3-2.4-7-8.4-11.3-12C55.8,390.5,49.1,390.3,48.1,396.3z
		 M128.1,387.3c0-1.3,0.5-2.2,1-3c-1.4,0.6-5-1-4.8,1C126.3,385.3,125.5,388,128.1,387.3z M129.1,389.3c3,4.6,12.7,12,19.7,6
		c-2.8-2.4-10.3,0.2-11.3-4c-1.6-3.3,0.6-3.4,1-7c-5.3-0.5-9,0.5-9.5,5H129.1z M368.1,389.3c1.8,4.2,0,9.6-6.7,8c5,9,14.2-2.8,18-7
		C377.4,388.3,371,387.3,368.1,389.3z M303.1,397.3c3-0.8,1.8-0.8,4.7,0c-1.4-3.8,2.6-2,2-5c-2-1-3.3-2.6-6.7-2
		C301.8,391.6,301.8,395.9,303.1,397.3z M150.7,395.3c0.6,3.6,11,2,13.2,1C161.2,394.3,154.2,393.1,150.7,395.3z M356.7,401.3
		c-2,2.5-9.4-0.8-11.3,2c3,2,2.5,7.3,6.7,7.8c3.4-2.4,8.4-3,9.4-8c-1.8-1.2-2-4.2-3.6-6h-14c-0.5,6.4,10.6,0.7,13,4L356.7,401.3z
		 M61.3,409.3c2,11.3,11.3,2.5,15-1c-6,0.6-4.8-6.7-8.4-9C68.4,405.6,61.9,404.3,61.3,409.3z M143.3,401.3h1.7v-2h-1.8v2H143.3z
		 M146,403.3c4,2.4,6.8,6,12.2,7c2.3-3,5-5.8,5.6-11c-7,0.5-16.2-1.7-18,4H146z M161,410.3c3,0.2,7-0.7,8.5,1c1.2-2.2-2.2-6.5-4.7-8
		C163.8,406.1,161.8,407.6,161,410.3z M336,412.3c3.2-1.7,5.6,0.7,10.4,0c2-2.8-3-5-2.7-9C338.1,403.1,338,408.6,336,412.3
		L336,412.3z M432,412.3c-7.8,0.3-9.3,7.3-12.2,13c-8,0.7-11,6.8-14,12.7c-7.3,1.8-13,5-16,11c-8,0.4-11.7,5-15.2,9.8
		c-3.8,0-7.2,0.3-8.5,3c8-1.3,6.6,7,12.3,8c2-0.6,3-2.2,4.8-3c0-5.2-2-6-2-13c2-0.3,2.5-2,4.8-2c2.8,4.3,9.4,10.3,14,4
		c-1.4-3.5-2.8-5.7-4.6-10.8c1.8,0,0.7-3.3,2.8-3c7.3-0.7,6.2,7.4,14,6c4.7-5.6,1-8.4-0.8-14c1.5-1.4,2-4,5.6-3c3-0.4,0.4,5,3.8,4
		c4.7,1,6.4-1,8.5-3c0.8-6-9-9.6-3-14.8c5.8-0.2,7,4.4,12.3,5c0.6-2.4,3-2.8,3.7-5c-3-4-6-8-7.5-11C433.5,407.8,434,411.2,432,412.3
		L432,412.3z M163,414.3c6.5,2.7,14.3,9.2,20.6,9C177.2,419.3,173.3,408.5,163,414.3L163,414.3z M323,425.3
		C321.5,425.8,323,426.3,323,425.3c8-3.5,17.6-5.2,22.4-12C332.2,411.1,328.6,419.3,323,425.3z M105.3,436.9c0.4,2,2,2.5,2,5
		c-1.7,3.2-4.4,5.4-4.8,10c1.3,1,3.5,0.8,3.8,3c5.4-1.3,8-5.4,11.3-9c-3,0.2-4-1.8-7.6-1c-1.5-2.8-1-7.7-4.8-8c-1.3-3-5.2-3-9.4-3
		c-0.4-11.4-11.8-11.2-16-18.7c-0.8,4.7-6.4,4.4-6.6,10c1.4,0.7,3,1.3,3,3.8c7,1.8,7-3.8,11.2-5c2,1.3,4.7,1.6,4.7,5
		c-2.2,5.2-4.6,6-4.6,12c3.6-1,3.3,2.3,5.6,3C98.3,442.8,98.5,436.3,105.3,436.9L105.3,436.9z M420.7,417.3c-4.4,1-6,5-8.5,8
		c4.2-1.2,7-4,8.4-8c1.4-0.7,0-1.3,0,0H420.7z M394.3,438.9c6-0.8,13.8-4.7,12.3-10c-3.7,3.8-8.5,6.4-12.2,10H394.3z M108.3,434.9
		c0,1,0.4,1,1,1c1.3,4.3,4.3,6.8,9.4,7c-0.2,0.8,0.4,1,1,1c0,1,1,0.7,1.8,1c-0.2,0.8,0.4,1,1,1c0,1,1,0.7,1.8,1c0,4.2,3.5,5,7.6,5v1
		c0.7,0.6,2.5,1.4,2.8,0c-0.8-0.6-1.5-1-2.8-1c-2-2.3-4-4.6-7.6-5c0-1-1-0.8-1.8-1c0-1-0.4-1-1-1c0-1-1-0.8-2-1c0.3-1-0.2-1-0.8-1
		c-3-2.4-5-6-9.4-7C109.5,435.1,108.9,434.9,108.3,434.9C107.8,433.5,107.3,435.1,108.3,434.9z M392.5,440.9c-4.4,2.3-9,4.3-12.2,8
		c-9.2,4.8-18.6,9.5-27.3,14.8c10.3-3.7,21.5-6.4,27.3-15C385.7,447.7,390.6,445.9,392.5,440.9C396.5,441.9,392.7,437.9,392.5,440.9
		z M117.8,462.7c7.3,5.6,9.5-3,15-5c2,1.3,4.8,1.6,4.7,5c-2,3.7-3,5.6-2,11c8,3.7,10-5.8,14.2-9h-7.5c-2-5.4-8.4-10.8-15-8
		c-2-2.6-3.2-6-5.8-8c2,6-3.6,7.7-3.7,14H117.8z M149.8,461.7v1c5.2,0.4,5.4,6,12.2,5c1,3,5-1,0,0c-2.4-3.8-7.3-5-12.3-6
		c-2.4-3.7-8.2-4-11.2-7c1.2,5,5.8,6.4,11.2,7H149.8z M331.3,475.7c-5,8.4-19.5,1.6-25.4,9.8c-10-2.6-17.2,3-25.4,3
		c5,1.5,2.8,10.2,7.6,11.8c7.7-1,1.3-17,13-13.7c2.4,3.2,1.6,9.7,6.7,10c0.8-1,2-1.2,3.8-1c1.3-4.5,0-6,0-11c2-1,2.8-3,5.6-3
		c3.8,2.2,4,8.4,8.4,10c2.3,0,3-1.6,4.7-2c0-5.3-2.2-10.5,1-14c7.4-1,8,5,10.4,9c2.8,1.4,3.3-0.5,7.5,0c1.2-6-3-6.3-2-12
		c1-2,3-3.5,5.7-4c4.3,2,3.5,9.6,10.3,9c7-3.7,0-9,2-14.8c-13.8,1.7-19.4,12-34,13L331.3,475.7z M332.3,472.7h7.5
		c-1-4.4,4.6-1.8,4.7-5C339.7,468.5,335.3,469.7,332.3,472.7z M152.6,481.5c7.8,4.3,9.3-4.8,14-7c3.6-0.3,5.6,1,5.7,4
		c-0.8,5-2.2,5.5-1,11c9,3.6,8.3-6.7,14.2-9c10,0-1.2,16.3,10.4,15c3.6-2.5,4.2-8.2,6.5-12c-10.2,3-12.8-8.2-26.2-5
		c-2.3-10-16.4-3.4-21.6-9C154.1,476.2,149.3,475.5,152.6,481.5L152.6,481.5z M185.6,475.5C186.1,477,186.6,475.5,185.6,475.5v-1
		c-4.2,1-8-3.5-10.4-1c3,1.2,6,2,10.2,2H185.6z M312.6,478.5c9.2,1.2,14-2.2,18.7-6C325,474.5,317.3,475.1,312.6,478.5L312.6,478.5z
		 M219.4,484.5c-7.3-3.5-19.8-6.8-28.2-6c10,1.5,17.2,5.8,28.3,6H219.4z M308.9,479.5c-3.8,0.3-8.7-0.5-9.5,3
		C303.7,482.7,306.8,481.7,308.9,479.5C313.9,480.5,309.9,476.5,308.9,479.5z M281.6,485.5c4.2,0,7.4-0.8,9.4-3
		C287,482.7,283,482.7,281.6,485.5z M236.4,484.5c-3.5,0.6-9.4-1.3-11.3,1C227.9,485.5,235.5,489,236.4,484.5z M266.4,486.5
		c3.7-0.2,8.4,0.7,9.5-2c-2.5,0.6-10.6,0.6-9.4,2H266.4z M208.2,498.5c4.5,0.7,6.6-1,9.4-2c-1.8-7.3,3.3-7.2,5.6-10
		c-7.7,0.3-10.7,3-16-1C209.2,490.1,206.4,493.7,208.2,498.5L208.2,498.5z M258,485.5c-3,0.6-8.7-1.3-10.3,1
		C250.4,487.5,256.7,488.5,258,485.5z M226,488.5c1.7,4.8-0.8,8.6,2,12.8c13,2.3,6-10.2,15-11.8c4,2,2.7,9.7,5.6,13h5.7
		c2.6-4,1.2-12.5,7.4-13c5.2,1,4.4,8.7,6.6,13c2-0.8,4.8-1,6.6-2c0.7-4.7-1.2-11.7,4.7-13c-10,6-19.7-3.5-28.2,4
		C244.9,482.5,233.1,493.1,226,488.5L226,488.5z"/>
	<path class="st1" d="M226,15.1h1.8v4H226V15.1z M299.3,16.1c3.3-1,2.8,7.2-1,5C297.6,18.1,299.7,18.5,299.3,16.1z M208.1,18.1
		c2-0.5,1.8,1.4,2,3c-1-0.3-1-1-2-1V18.1z M190.3,22c1.5-0.3,1.7,0.8,1.8,2c-0.8-0.2-1,0.4-1,1c-1-0.2-0.7-1.8-1-3H190.3z M172.3,27
		c3-0.2,3.7,4.6,0,4V27z M353.9,31.9c2.4,0.2,0.3,3.4,0,4c-0.8-0.2-1-1-2-1v-2C353.1,33.1,353.7,32.7,353.9,31.9z M155.3,32.9
		c1.3,0.4,2,1.3,2,3c-1.5,0.3-1.6-1-2.8-1c0-0.8,1-1,1-2H155.3z M259.8,34.9C262.5,31.9,257.1,37.7,259.8,34.9z M262.6,33.9h2v2h-2
		V33.9z M138.5,40.8c1,0.5,2,1.3,1.8,3c-1.5,0.3-1.6-1-2.8-1C137.7,42,138.5,41.8,138.5,40.8z M248.5,43.8c0.3-1.3,2.4-0.8,3.8-1
		c0.3,1.6-1,1.7-1,3h-1.8C249.5,44.6,249.3,44,248.5,43.8z M273.9,45.8c-3.4-0.3-8.3,0.8-10.3-1C264.6,41.2,273.6,42.6,273.9,45.8z
		 M250.3,46.8c0,3.7-3.2,2.8-5.5,2c0-2.6,3-2,5.6-2H250.3z M277.7,48.8c-3,3.4-8-0.2-14,1C266.3,45.5,273.2,47.6,277.7,48.8z
		 M386.8,46.8c0.7,2.7-1.8,2-1.8,4C382.7,50.1,384.5,45.8,386.8,46.8z M121.5,49.7c1.2,0.5,2,1.3,2,3
		C122.2,52.3,121.5,51.5,121.5,49.7z M246.7,51.7c1.3,3-7,3-5.7,0C241.7,51,246.3,49.5,246.7,51.7z M277.7,54.7c-4-0.4-9.7,1-12.2-1
		C267.1,51.7,277.8,49.4,277.7,54.7z M160.1,61.6c-4-1-3.4-5.3-8.5-3c-0.4,4.5,3.4,4.5,3.8,8c1.2-0.2,1-1.8,1-3c4,0.3,4.3,4.2,4.7,8
		c-0.8-0.8-2-1-3.7-1c2,2.7,2,8,6.6,8c3.2-3,0-5.5,0-10c4,1.3,5.8,5,6.5,10c-4.7,1.4-7.8,4.8-13,5.8c-0.2-4.3-2-7-3.8-9.8
		c-5,0-8.7,10.7-2.8,13c-0.2,3.3-2.8,4.2-5.7,4.8c-1.6-11.3,3.8-26.2-4.7-28.7c3.5-5,19-14.7,19.8-2L160.1,61.6z M147.9,74.6
		c1.7,0,2-1.2,3.7-1c-0.4-4.3-1-8-4.7-9C146.2,69,148.2,70.6,147.9,74.6z M402.8,56.7c0.3,2.6-0.3,4.2-2.8,4
		C399.7,58.1,400.4,56.4,402.8,56.7z M106.5,60.6h2v2h-2V60.6z M267.3,66.6c8.6-1.4,25-2.6,29.2,4c-9.5-1.6-20-2-29-4H267.3z
		 M233.5,66.6c0,5.2-8.2,2-11.3,4c0.6-4.6,6-4,11.2-4H233.5z M384,71.5c0,4-2,6-5.6,6c-0.4-3,1.8-3.5,1-7c-7.6,0-1.2,9.2-2.8,15
		c-2.8,8-11.8,9.5-17,3c1-3.8,1.6-7.8,5.7-8c0.6,3.7-1.2,4.7-1,8c1-0.3,1.6,0,1.8,1c9-1.4-3-29.8,14.2-23
		C381.3,67,381.1,71,384,71.5z M415.1,66.6c4.2-0.2,0.5,4,0,5C412.3,70.6,415.6,68.4,415.1,66.6z M131.9,77.5
		c-3.7,0.2-3.5-3.6-7.6-3c4.5,7.8,9,15.6,16,20.8c-0.2,3.8-4.8,2.8-5.6,6c-3.7-8.7-10-14.6-15-21.8c-4.2,1.3-0.2,5,0,8
		c-3.5-0.5-4.4-3.5-5.7-6C117,75.2,129.5,64.5,131.9,77.5L131.9,77.5z M92.3,71.5c1.4,1,3.7,0.8,3,4C92.7,75.8,92.1,74.1,92.3,71.5z
		 M243.8,74.5c3,0,3.3,2.6,3.8,5c-1,0.8-2.5,1.3-4.7,1c0-2.5-0.2-4.8,1-6H243.8z M278.6,75.5c3.4-0.2,5,1.4,4.7,5c-1,1-3.3,1-5.6,1
		c-0.4-4-1-3.6,1-6H278.6z M392.5,76.5c3.4,0.4,4.7,3,6.6,5c-5.8,7-13.5,12.2-17,21.7c-3.5,0-5.4-1.7-6.5-4c6.3-7,13.7-12.6,17-22.8
		L392.5,76.5z M209,79.5h3.8c1.3,1.3,1.3,5.6,0,7H209C207.2,84.5,208.6,81.7,209,79.5z M429.3,79.5c2.2,0.6,0.4,5-2,4
		C426.6,80.7,429.3,81.5,429.3,79.5z M313.5,83.3c3,0.3,4,2.4,3.7,6c-5,2.7-7.3-3-3.8-6H313.5z M77.3,85.3c0-2.4,3.2-0.2,3.8,0
		C80.9,87.9,77.9,85.7,77.3,85.3z M110.3,94.3c-3,0-7.6-3-8.5,1c6.3,6.2,26.2,0,19.7,17.8c-2.5,0.3-4.4,1.3-5.6,3
		c-3.2-1.3-6.3-2.6-6.6-7c3.4,0.3,6.8,4,10.3,1c-1.3-12-24,1.8-21.6-15.8c3.3-4.4,10.8-9,12.2,0L110.3,94.3z M415.1,97.3
		c-0.6,3-2,5-5.7,5c-0.6-4,3.2-3.5,2-8c-9.4,2.4-15.7,8-18,18c5.3-0.7,8-3.7,8.6-9c3,0.5,4.6,2.3,5.6,5c-2,4-6.8,5.3-9.4,8.8
		c-3.4-1-5.6-3.3-8.4-5C388.5,98.3,408.1,81.5,415.1,97.3z M441.3,93.3c2.4,0.7,0.6,5-1.8,4c0.5-1.5,1.4-2.5,2-4H441.3z M65.1,98.3
		c1.2,0.3,1.5,1.7,2.8,2C67.5,102.7,64.2,100.3,65.1,98.3z M248.5,103.3c5.3,4.6,10-2.7,13.2,2c0,1.2-1.2,1.3-1,3
		C256.7,107.3,243.2,113.6,248.5,103.3z M87.7,104.3c5.3,8.8,20,12,17.8,25.7c-12,9.2-17.2-9.5-28.2-11c0-4,2.5-5.8,5.6-6.8
		c4.6,7.3,11,12.8,19,16.7c1-0.3,0.5-2,1.7-2c-4-8.3-10.4-14-18.8-17.8c1-2,2.3-3,3-5L87.7,104.3z M272.1,113.1c-0.4-3-3-3.6-4.7-5
		c1-0.8,0.3-3.6,3-3c2,2.8,6,5.3,8.3,5c0.7,5.7-3.4,3.4-6.5,3H272.1z M423.5,106.3c3.7,0.3,4.4,4,6.6,6c-8,5-16.3,9.7-20.7,18.7
		c-3-1-5.4-2.8-5.5-7C411.1,118.8,419.7,115,423.5,106.3L423.5,106.3z M452.7,107.3c2.3,0.3,0,3.7-2,3
		C450.3,108,452.7,108.8,452.7,107.3z M240.1,108.3c3,0,2.5,3.8,3.7,5.8c-2.3,1.3-4-3-4.7,0c3.3,1.3-2,7.7-2.8,11
		c-0.6-1.4-3.6-0.2-3.8-2c0.4-2.6,0.5-5.5,2-7c1.3-0.2,3.4,0.4,3.7-1c-4.7-0.7,2.2-4,1.8-7L240.1,108.3z M244.8,110.3
		C244.4,109.8,245.4,110.8,244.8,110.3z M280.5,113.1c3.4,1.6-0.4,3.6,0,6c-2.5,0.3-3-1.4-2.8-4
		C278.5,114.3,280.3,114.5,280.5,113.1z M52.8,115.1c-0.3-2,4.3-1.4,3,1h-2C54,115.3,53.4,115.1,52.8,115.1z M196.8,119.1
		c-2,3-5.2,5-10.4,5c3-2.4,5.8-4.7,10.5-5H196.8z M282.3,120.1C283.5,116.1,283.5,124.1,282.3,120.1z M435.8,120.1
		c4-0.2,3.3,4.4,5.6,6c-7.2,5-14.8,10-21.5,15.8c2.5,4.2,5.3-1.2,9.4-1c1.6,3.3-4.3,5.7-7.6,7c-3-3.2-6.8-5.6-7.6-11
		C422.6,132.7,431.4,128.7,435.8,120.1z"/>
	<path class="st1" d="M286.3,121.1c-0.2,1.4-0.3,2.8,0.8,3c-1,3.3-1.7,0.4-4.7,1v-3c1.8,0,2-1.3,4-1H286.3z M463.1,122.1
		c4-0.4,1.3,5.6-2,4C461.1,124.1,463.7,124.8,463.1,122.1z M232.5,129C232.1,128.6,233.2,129.6,232.5,129z M75.3,135.9
		c-3.8-0.3-5.4-5-8.3-1c3.7,8,10.8,12.4,20.7,14c-0.3-5.8-5.2-6.5-9.5-8c0-3,2-4,2.8-6c4.7,2,7,6.6,11.3,9c0.5,19-28.5,5.8-28.2-6
		c0.2-4,6-14.2,11.3-2H75.3z M283.3,130c2.2-0.3,3.7,0,4.8,1c0.5,3.8-1.7,4.8-1,9c-2.8-1-4.6-1.5-5.6-2c0-3.8,1.3-2.6,3.7-2
		c0.4-3.2-3-2.3-2-6H283.3z M235.3,131c0,6.4,2,13,6.6,15.8c0,2.5-1.3,4-3.7,4c0-3.3-1.7-5-4.8-5c0.4-5.6,0-9-2.8-12.8
		C231.4,131.5,232.9,130.8,235.3,131z M279.6,143.8c0.5-1.4,1.4-2.4,2-4c1.3,0.6,2.2,1.6,3.6,2C283.9,143.4,281.8,146.4,279.6,143.8
		L279.6,143.8z M473.3,139.9c2.4,0.4,0.2,3.8-1.8,3c-0.5-2.2,1.8-1.5,2-3H473.3z M203.3,143.8c-2.6,1-2.4-1.3-4.6-1
		C198.7,139.8,204.3,140.2,203.3,143.8L203.3,143.8z M449.9,140.9c2.3,1.8,4.5,3.8,4.7,8c-9.8,0.5-14.5,6.5-21.7,9.8
		c2,3,6-0.3,8.5,0c-3.2,9.2-13.8,5.3-16-2C432.6,150.3,444.7,149.2,449.9,140.9L449.9,140.9z M317.3,142.9c1-0.2,1.6,0.2,1.8,1
		c-2,7.5-5.3,13.5-12.2,15.8C311.3,155.3,313.5,148.3,317.3,142.9z M242.9,143.8c1.6,1.3,3.7,2,3.8,5
		C245,147.5,243,146.8,242.9,143.8z"/>
	<path class="st1" d="M279.6,143.8c-0.7,3.4,3.8,1.3,2.8,5h-3.7c0.2-0.8-0.3-1-1-1c0.3-1.7-0.8-5,2-4H279.6z M34,146.8
		c2.5-0.3,4.7-0.3,3.8,3C35.3,150.1,33.8,149.4,34,146.8z"/>
	<path class="st1" d="M277.7,147.8c-0.2,1,0.4,1,1,1c0.2,1.3,1.3,2,1,4c-3,0.4-3.8-1.4-5.8-2c-0.6-2.7,2-2,2-4
		C276.9,146.8,276.9,147.6,277.7,147.8z M55.7,149.8c7,6.5,18.8,8,24.4,15.8c0,5.3-4.3,6-6.6,9c-8-2.7-14-7.6-23.5-9
		c-0.5-3.5,1-4.7,2-7c7.4,3.8,14.8,7.6,22.5,11c0.7-0.2,1-1,2-1c-2.7-9.2-16-11-22.7-13C53.5,152.8,55.8,152.6,55.7,149.8
		L55.7,149.8z M319.1,151.8c3.7,5.6-5,6.6-5.6,11C308.5,158.8,318.1,155.8,319.1,151.8z M186.3,154.7c3.7,3.2,1.8,12,3,18
		C184.6,170.3,186.7,158.7,186.3,154.7z M482.8,156.7c-0.2,1.8-1.6,2.3-3.8,2C479.3,157,480.7,156.4,482.8,156.7z M321.9,158.7
		c1-0.2,1.7,0.2,2,1c-1.3,5.3-4.5,8.5-5.7,14c-2.5-5,1.6-11.5,3.6-15H321.9z M459.3,158.7c2.2,1,3,3.4,2.8,7c-9,1.5-15.6,6-22.6,9.8
		c8,7.4,21.7-10,26.4-3c-8,3.7-16,7.7-26.4,9C427.5,168.1,452.9,165.5,459.3,158.7z M24.6,162.7c3-0.5,3.7,1.4,5.7,2
		C29.7,168.2,24.3,166,24.6,162.7z M327.6,163.7c2.8,8.7-1.3,27-4.7,35.6C323.2,186.1,323.6,173,327.6,163.7z M266.3,168.6
		c0,1.8-1.5,2.3-3.7,2c-1-3,2-1.8,3.8-2H266.3z M265.5,174.6c-2,0.4-2.5-0.7-3.8-1C261.9,170.6,266.2,171.2,265.5,174.6z
		 M485.6,174.6C488.6,170.9,488.8,177.6,485.6,174.6z M259.8,176.5c2-0.4,1.4,4.5-1,3v-2C259.8,177.7,259.8,177.1,259.8,176.5z
		 M72.6,182.5c-0.2,3-2,4.4-2.8,7c-2.8-1.6-6.5-3.4-9.4-2c-1,6.8,3.5,7.5,7.6,8.8c-0.5,1.8-0.5,4.2-2,5
		c-7.2-7.2-18.3-10.3-23.4-19.8C51.8,178.9,65.4,182.9,72.6,182.5L72.6,182.5z M57.6,190.5c0-1.5,0.4-2.3,1-3c-1-1-6-2.2-6.7,0
		c2.4,0.3,2.8,3,5.6,3H57.6z M261.7,181.5c-0.3,2.3-2.5,2.3-3.8,1C258.2,180.2,260.5,180.2,261.7,181.5z M19,182.5
		c2.7-0.2,5,0,4.7,3C21,185.5,18.5,185.5,19,182.5z M468.7,182.5c3,0,2.8,3,2.8,6c-5.5,1.7-9,5.6-14,7.8c6,4.4,11-0.5,18.7,3
		c-0.6,3.2,1.7,3,0,5c-10.3-2.8-19.5,3-29.2,4c0.7-3-1.4-2.6-1-5c6,0.8,9.3-1.5,14-2c-3.3-1.7-8-2-13-2c1.3-3.8,5.5-4.7,8.4-7
		c-3-2-9.8,0.3-10.3,4c-2-1-3-3-3-6c9.7-1.6,19.8-3,26.4-7.8H468.7z M366.1,191.3c0-0.5,0.8-1,1,0H366.1z M493.3,190.3h1.7
		c0.5,2.2-1.3,2-2.8,2c0-0.7,1-1,1-2H493.3z M19,201.3c-0.3,1.3-2.4,0.8-3.8,1C15.4,200,17.6,200,19,201.3L19,201.3z M234.3,207.3
		c-0.7,1.7-1.6,3.4-4.6,3c-0.5-1-1-1.7-1-3c1.3-1.4,4.5-1.4,5.7,0H234.3z M51.9,215.3c0.4,3.6-4.3,5-6.6,2.8c-0.3-5.3,4.2-5.2,6.6-3
		V215.3z M11.3,216.3c0-1.7,5.2-1.5,3,0.8c0.3-0.3-3-1-3-1V216.3z M242.9,216.3h2.8v2.8h-2.8v-3V216.3z M278.6,216.3
		c0,1.8,2.6,1,2,3.8h-4.8c-0.2-2.6-0.3-5,2.8-4V216.3z M233.5,221.1h-5.7C227.8,218.1,234.3,216.7,233.5,221.1z M463.1,218.1
		c2.3,0,4.5,0,5.6,1c-0.3,2.3-1,4.3-2.8,5c-2.4,0-3.7-1.5-3.8-4C463.1,220.1,462.8,218.9,463.1,218.1z M260.8,219.1
		c3,0.2,4,2.3,3.7,6c-1-1-2.5-1.3-4.7-1C259,221.3,261.2,221.5,260.8,219.1z M308.8,219.1v4H304v-3
		C305,219.3,306.6,218.8,308.8,219.1z M13.3,232C10.5,235.7,10.3,229,13.3,232z M480.9,235c0.6,2.2,2,6,0,8c-9.5-2-17.3-1.2-25.4,1
		c6.4,5.8,21,2.7,26.4,3v5.8c-7.6-4.3-24,1-29.2-6C450.7,230.8,472.7,240.1,480.9,235z M298.3,236c3.6-0.4,4,2.4,4.8,5
		c-2,1.7-5.7-0.6-4.7-5H298.3z M40.6,242.9c-1,2.3-3.2,3.2-6.6,3v4c1,2.2,6,0.3,8.5,1c-0.4-2-3.7-1-2.8-4h8.4c2,2-0.4,2-1,4h8.6
		c0-6.4-6.6-5.7-10.4-8c2-4,11.5-1.7,14,0c-0.3,6.2-1,7.2-0.8,15c-2,1.5-4.6-2.7-9.4-1c-4.8,5,2,9.6,5.6,11.8c2-0.3,2-2.7,2.8-4
		c3.3,0.5,1.4,6.5,2,10c-9.8-3.7-17-14-29.2-12c0.3-10.5,0.6-10.2,0-19.8C33,240.1,37.3,241.3,40.6,242.9z M45.3,261.7v-5
		c-3.2,0.7-8.7-1.2-10.3,1C39.2,258.2,40.5,261.7,45.3,261.7z M503.5,241.9c0,2.7-4.4,2.4-5.6,1
		C498.7,240.9,501.9,240.2,503.5,241.9z M9.6,250.8h2.8v2H9.7L9.6,250.8L9.6,250.8z M194,255.8c3.5-1,3.3,4.4,1.8,6
		C193.4,261.6,194,258.4,194,255.8z M313.5,256.8c1.5-0.3,1.6,1,2.8,1c0.8,2.8-1.3,2.5-1,5C312.9,262.6,313.5,259.4,313.5,256.8z
		 M452.7,256.8c10,3.2,20.4,3.6,29.2,0c0,9-7.4,10-14,12c1,3.6,9.4,1.6,12,0.8c1.2,1.2,1,3.5,1,6c-8.7-2.4-19.6-2.5-28.2-5
		c3.8-3.2,9.5-4.5,14-7c-4-2-9-1.8-14-1C451.7,259.6,452.7,260.6,452.7,256.8z M201.5,257.8c1.5-0.3,1.6,1,2.8,1
		c0.8,2.7-1.3,2.5-1,5C201.1,263.2,199.5,259.8,201.5,257.8z M295.6,274.6c1-8.4,5.2-13.7,12.2-15.8c-5.6,6.8,7.8,22-8.5,22.7
		c3.6-2,9.7-7.8,4.7-12.8c-3.4,1-4,9-8.4,6V274.6z M320,260.7c4-1,4,7,0,6C318.2,264.7,319.8,263,320,260.7z M503.5,261.7
		c-0.2,1.8-1.6,2.3-3.8,2C499.3,260.7,502.1,260.2,503.5,261.7z M196.8,267.7c1.5-0.3,1.6,1,2.8,1c0,2.5-0.2,5-2.8,5
		C196.8,269.9,195.8,270.7,196.8,267.7z M242.9,269.6c-0.2,1,0.4,1,1,1C244.9,278.6,235.4,268.6,242.9,269.6z M313.5,269.6
		c2.3,0.2,3.6,1.5,3.7,4c-1,0.4-1.8,1-2,2c-2-0.8-3.6-4-1.8-6H313.5z M11.3,271.6C11,271.2,12.1,272.3,11.3,271.6z M188.3,271.6
		c4.7-1,4.7,6,0,5V271.6z M236.3,271.6c2.7,0.5,4.3,2,4.7,5C238.4,276,235.7,275.6,236.3,271.6z M176.1,274.6c0,19.2,0,36.7-1,50.5
		c-3.5,1.8-8,0.2-11.2-1c-0.6-19.6,1.4-30.5,1-49.5C166.9,273,173.9,273,176.1,274.6L176.1,274.6z M166.7,275.6
		c-0.3,14.8-1.4,29.7-1,47.5h7.6c1.8-11.8,0.5-31.3,1-47.5H166.7L166.7,275.6z M233.5,275.6c4-0.2,5.8,1.8,5.6,6
		C236.5,280.4,233.5,279.6,233.5,275.6z M149.7,278.6c3,11.2,0.7,31,0,44.5c-18.8,0-38,0.4-54.5-2c0.3-14.4-1.4-31,1.8-42.5
		c14.7-3.8,34.5,1,52.6,0H149.7z M98,280.6c1.2,13.5-2.8,26.6,0,38.6c17.6-1.5,35.4,2.2,50.8,0c-0.3-12.7,0.5-28.2,0-37.8
		c-16.7-1.8-37.3-1-50.8-1V280.6z M348.3,276.6c2.4,16.6-0.6,36.3-1,50.5c-4.3,0.4-8,0.7-12.2-1c2.5-14.5-0.6-35,2-49.5H348.3
		L348.3,276.6z M337.9,325.1h8.4c-0.3-10.6-0.2-30.8,1-45.5c-1.5-1.7-5.5-0.8-8.4-1C338.9,294.6,337.2,308.6,337.9,325.1z
		 M201.5,277.6c1.6,1,3.3,1.8,2.8,5C200.5,283.6,199.7,279.6,201.5,277.6z M61.3,287.5c-7.5-3.7-20.6,1.4-28.2,4c0-4.2-1.7-5.6,0-9
		C39.9,289.8,63.6,268.8,61.3,287.5z M465.9,279.6C465.5,279.1,466.5,280.2,465.9,279.6z M451.8,280.5c7.5,3.2,19.6,5,27.2,5
		c0.5,3-1.7,3.5-1,7c-9.4-1.7-16.8-5.4-28-5C449.3,283.9,450.5,282.2,451.8,280.5z M416,282.5c-0.6,14.6,1.2,31.7-1,44.6
		c-17.5-0.6-37.5,1.2-53.6-1c1.3-14-2.2-32.8,2-43.6C381.6,280.2,395,283.2,416,282.5L416,282.5z M364.3,284.5
		c0.4,16.6-1,26.4,0,39.6c16.6-1,35,1.5,49,0c2-12.7,0-26.2,0.8-38.6C396.5,286.2,381.1,284.5,364.3,284.5L364.3,284.5z
		 M497.9,282.5c-0.2-2,3.3-0.4,4.7-1C503.1,285.5,498.6,284.9,497.9,282.5z M315.3,282.5h3.8c0.3,2.3-0.2,3.8-1,5
		C315.1,287.9,315.1,285.5,315.3,282.5z"/>
	<path class="st1" d="M102.7,283.5c5-0.8,4.8,3.5,5.7,7c8.4,8,30,6.7,32-6c2.2-0.3,3.7,0.2,4.7,1c-4,10,0.4,20.7-1.8,30.7
		c-7.8-3-2.8-15-3-24c-5.5,4-9.7,9-17,11c-6.2-2.6-12-5.7-16-11c-2.2,8,2.4,19-3.7,24c-5.4-3.8-1-15.3-1-23c0-4.5-2.7-7.6,0-9.8
		L102.7,283.5z M103.7,287.5h1.8v-2h-2v2H103.7z M143.2,286.5C138.2,285.5,142,289.5,143.2,286.5z M187.3,284.5h3v4
		C187.1,289.5,187.1,287.1,187.3,284.5z M11.3,288.5c2-0.5,2.6,0.6,4,1c-0.7,1.3-2,1.8-4,2V288.5z M195.9,288.5
		c4.2,0.4,3.8,4.5,1.8,7C196.2,293.9,193.7,291,195.9,288.5z M371.8,288.5c1.6,18,32,15.5,32,0h4.7c-3,7.4,4,27.7-3.8,32.7
		c-3-5.6-1.4-14-1-21c-9,6.8-25.7,10.3-31-3c-3.7,7.5,4,21-5.6,22c3.5-9.8-4-28.8,4.7-30.8V288.5z M309.7,294.3c3.6-0.7,3.6,5,0,4
		V294.3z M38.7,315.3c-0.6-3.7-2-7-1-10c2.4-1,4.2-2.3,7.6-2c1,4.8-3.6,3.5-4.7,6c4.8,6.5,17.5-0.3,21.6-4c-2.2-4-9.3,0.7-11.3,3
		c-2-1.7-2.6-4.6-3-8c4.5-1.3,9.7-1.7,14.2-3c11.8,14.5-10.4,24.4-23.6,18H38.7z M474.3,297.3c3.3,0.6,1.5,5.8,1,8c-2.3,0-10-2-16-1
		c2.3,5.2,14,5.7,13.2,11c-5.7,1.3-18-10-25.4-14C450.8,294.3,467.6,301.3,474.3,297.3z M200.6,299.3c4-0.3,3.6,2.5,2.8,5
		c-3,0.5-3-2-2.7-5H200.6z M495,299.3c1.4,0.6,5-1,4.7,1C500.7,303.7,492.9,303.3,495,299.3z M194,302.3c4-1,4,7,0,6
		C194,304.6,193,305.5,194,302.3z M321,303.3h2.8c1.3,1.3,1.3,4.7,0,6C320.4,309.8,320.8,306.3,321,303.3z M16.1,309.3
		C18.5,305.3,17.5,312.5,16.1,309.3z M201.5,310.3h2.8v5C201.3,315.7,201.3,313.1,201.5,310.3z M311.6,315.3c-3,0.4-4.2-1-3.8-4
		C310.8,308.6,313.5,312.3,311.6,315.3z M442.3,315.3c8.7,3.3,16.7,7.5,26.4,9.8c-0.2,6-2.6,9.8-4.7,14c-3-0.5-6-1-6.6-4
		c3-0.8,6-1.2,7.6-3c-1-3.2-5.7-2.6-7.5-5c-2.8,1.2,1.5,3.8-0.8,5c-3,0-3.2-2.7-6.6-2c-1-3,1.5-2.4,2-4c-2.2-2.2-5.3-3-9.6-3
		c-0.5,5.2,5.8,3.3,4.8,9c-3.5-0.7-5.6-2.8-8.5-4c-0.2-6,3-8,3.7-13L442.3,315.3z M67.9,318.3c1.2,0.2,1.5,1.6,2.8,2
		c0,7-8.5,5.5-10.3,10.8c3,4.6,9.2-2.3,12.3-4c0.7,3,3.3,3.8,2.8,8c-10.5,1-18.3,5-24.3,10.8c-5-6-7.7-13.6-2-18.8
		c10.7,1.6,13-5.5,19-9L67.9,318.3z M48.1,337c3.3,2,9.6,0,10.4-4C54.5,330.3,48.9,333.2,48.1,337z M492.3,318.3
		c0.7,0.4,1.4,1,2.7,1c-0.5,2-1.4,2-2.8,1v-2H492.3z M22.7,327.1c-0.4,1.2-1.2,2-2.8,2C19.5,327.1,21.3,327.1,22.7,327.1z
		 M484.7,337c2.4-0.3,4,0.4,3.8,3C486,340.2,483.7,340.3,484.7,337z M433.9,338c7,5.7,16,9.4,24.4,14c-0.5,11-14.4,17.8-17.8,4.8
		c-5,2-8.5-3.6-14-4c-0.4-2.8,1.6-3.4,2.7-5c5.8-0.5,5.7,5.2,12,4c0-5.8-6-5.3-10.2-7c-0.5-3.6,1.8-4.5,2.8-6.8H433.9z M453.6,356.8
		c-2-2.4-4.5-4.5-9.4-4C442.9,358.3,451.4,361.2,453.6,356.8L453.6,356.8z M28.3,345.9C31.5,343.5,26.1,349.2,28.3,345.9z
		 M82.9,347.9c1.7,15.4-12.5,19-24.4,16.8C51.9,351.7,72.8,340.1,82.9,347.9z M59.4,361.9c10.8-0.4,18.5-4,20.8-13
		C71.9,351.6,63.2,354.1,59.4,361.9L59.4,361.9z M478.1,354.8c2.5-0.2,4,0.4,3.8,3C479.4,358.1,477.9,357.4,478.1,354.8z
		 M35.9,362.8C38.2,358.8,37.3,366,35.9,362.8z M429.3,367.7c-4.5,0.7-4.3-3.5-9.5-2c-0.5,9,13,3.3,19.7,5
		c4.8,4.6,2.8,14.8-3.7,15.8c-1.2-2.4-5.8-1.2-4.7-6c3.8-1,6,2.5,8.4,0c-3.8-8.6-22.2,2.5-24.4-10.8c0-8,13-11.4,14-2H429.3z
		 M92.3,363.7c2,4.2,5.5,6.8,6.6,12c-8.3,3.3-15,8.6-20.7,14.8c-5.6-1.7-8.2-6.7-9.5-13c1.7-0.8,2.4-2.7,5.7-2c1,3.8-2.4,3-2,6
		c0.4,1.4,1.8,1.6,2,3c3.5-0.2,4-3.7,7.5-4c0.2-2.4-1.4-3-2.8-4c1-2.3,3.7-3,6.5-3.8c0.4,2-0.7,2.6-1,4c3.6-1,6.4-2.6,8.5-5
		c-1.7-4-5.2-2.3-9.4-2C84.7,365.7,87.3,363.7,92.3,363.7L92.3,363.7z M258.9,368.7c-8,2.8-25,5-31-1
		C236.9,370,248.9,365,258.9,368.7z M296.5,380.6c-5.4-5.2-14.7-6.3-21.6-10C282.3,366.1,293.5,374,296.5,380.6z M468.7,371.7
		c-0.3-1.8,5.3-1.8,3.8,1C470.5,373.1,470,372,468.7,371.7z M44.3,379.6C46.7,375.6,45.7,382.9,44.3,379.6z M407.5,378.6
		c7.8,5.5,13.8,12.7,22.6,16.7c0,4.2-4.4,3.4-4.7,7c-5.6-7.4-12.6-13.6-21.5-17.8c0-3.3,2.2-4.3,3.7-6L407.5,378.6z M93.3,410.3
		c-5.3-4.4-7.2-11.4,2-13c1,4.5-3.3,3.4-3,7c6.6,4.3,18.3-7.4,17-14.8c-4.2,1.6-7.6,4-8.5,9c-4.4,0-5.7-3.3-6.6-7
		c7.5-6,19.5-9.2,20.6,2c1,8.4-10.7,17.2-21.6,16.8H93.3z M459.3,385.5c2.4,0.2,3.6,1.5,3.7,4C460.7,389.5,459.4,388.1,459.3,385.5z
		 M411.3,411.3c3-2.5-3.8-3.2-2-8c4,0.7,5.5,3.6,6.7,7c-2.8,4-6.6,7-10.3,10c-4.2-0.3-6.8-2.3-7.6-6c2.8-2.6,3.6,2.8,7.6,2
		c-4-8-10-13.3-17-18C396.1,384,402,409.3,411.3,411.3z M57.5,393.5c0.3,2.6-1.3,3.2-3.7,3C53.5,393.8,55.1,393.2,57.5,393.5z
		 M447.1,402.3c0.5-2.3,4.7-0.4,3.7,2C448.3,405.1,448.8,402.3,447.1,402.3z M384,403.3c-1.3,13,12,20,6.6,30.8
		c-10-4-13.5-15-25.4-17c-0.5-4.6,5-3,6.5-5.8c2.2,1.6,3.4,4.4,5.6,6c6,1,6.7-10.3,0-9C378.1,405,379.8,402.9,384,403.3z
		 M386.8,424.3c0-4-1-6.8-5.6-6c0,3.8,3,4.7,5.5,6H386.8z M68.8,408.3c0.6,2.2-1.8,1.4-1.8,3C64.6,410.9,67,407.5,68.8,408.3z
		 M434.8,415.3c3-0.5,4.2,0.8,3.8,4C436.2,419.1,434.9,417.8,434.8,415.3z M124.3,418.3c2.3,1,4.7,1.7,3.8,6c-2.7,0.8-3,0.8-5.6,0
		C121.9,421,122.7,419.3,124.3,418.3z M80.1,421.3c2.4,0,0.3,3.3,0,4C77.3,424.5,81.1,423,80.1,421.3z M358.6,421.3
		c1.7,9.4,7.5,14.5,11.3,21.7c4-1.3,0.3-5.4,1-9c2.5,2,5,4,5.6,8c-3.6,4.2-10.4,5-14,9c-3.4-1-4.8-3.7-4.8-8c3.6-0.8,3,3,5.6,3
		c-1.3-5.7-6.8-15.2-12.2-20C351.9,422.7,354.5,421.2,358.6,421.3L358.6,421.3z M165.7,428.1c0,5-3.7,6-4.7,10c-0.4,3,2.4,2.7,3.8,4
		c5-2,8-5,7.5-10c3.8,0,4.3,3.5,7.6,4c-7.5,5.8-20,11-20.7,20.8c-8-1.3-13-5.7-19-9c1-3,1-7,4.7-7c-0.3,4,0,7.4,3,8
		c3.2,0,2.6-4.3,4.6-6c-0.2-1.2-2.8-1.2-3,0c-2.5-2.8,1.3-7.2,3-8.8c1.2,0.6,1.7,2,2,4c2.3-2.5,3.6-6,5.5-9c0-2.5-3.2-2-5.6-2
		c-2.2,1.7-2.3,5.6-6.6,5C148.8,419.1,158.8,423.1,165.7,428.1L165.7,428.1z M154.5,450.9c3.8-1.2,6.4-3.8,8.4-7
		C158.1,440.6,155.4,446.9,154.5,450.9z M422.6,429.1c2-0.2,3,0.8,2.8,3c-2,0.2-3-0.8-2.7-3H422.6z M339.8,431.1
		c2,10.3,7.2,17.5,12.2,24.8c-2.6,1-5.4,2.2-8.4,3c0.7-9.4-10-18.7-10.4-26.8c3,0.5,3.2-1.8,6.5-1H339.8z M92.3,437
		c1.7-0.3,1.8,0.8,2,2c-1-0.2-1,0.4-1,1C92.3,440,92.5,438.2,92.3,437z M186.3,438c4-1,3.8,2,6.7,2c-2.7,8.8-8.4,18.3-8.4,26.8
		c-3.4,0-5.5-1.6-8.5-2c4.3-8,8.7-16,10.3-26.8H186.3z M323.8,438c-0.2,3.6,1.7,4.8,2,8c-4.7,0.5-4.3-4.3-8.6-4c-0.8,0.2-1,1-2,1
		c1,10.8,17,5.8,15,19.8c-2.5,3.2-7.7,3.6-12,5c-0.3-1.6-3.3-5.2-1-6c0.4-4.3,3.8,3.2,7.4,2c-2.3-9-18.4-8-12.2-22.8
		c4.4-0.4,6-3.7,11.3-3H323.8z M408.5,441c1.6,0.2,2,1.7,2,4C408.7,444.7,408.2,443.3,408.5,441z M202.3,445
		c25.8-5.4,11.6,38.6-4.6,26.7c1-3,0-8,3.8-8c1.8,1.6-1.4,4,1,6c7.5-2,7.6-11.7,7.5-21.8c-5.2,0.6-2.3,9.6-4.7,13
		c-3.3,0.7-3.7-1.6-6.6-1C199.5,454.4,202.4,451.2,202.3,445L202.3,445z M107.3,451.9C104.1,447.3,112.3,447.9,107.3,451.9z
		 M225,447.9c6-0.2,11.4,0,15,2c-2.4,7.8-4.6,21.5-2.8,27.8c-7.3-0.5-10.3,0.4-15-2c0-3,0.8-5.6,1.8-8c2.4,0.8,1,5.7,3.7,6
		c3.8,0.6,2.7-3.8,3-7c-0.5-1.3-1.8,0-2,1c-2.2-1-0.4-6.2-1-9c2-2,2,0.6,3.8,1c1.5-1.3,0.8-5,1-7.8c-6.5-1.8-3.7,6-8.5,6
		C223.2,453.4,225.2,451.9,225,447.9z M250.3,448.9c7,0,3.4,10.5,6.7,14c3.6-1.6,2-11,0-13c2.3-0.8,5-1.3,8.5-1
		c-1.7,8.8-1.6,22.3,1,29.7h-15c-1-1.3-1.7-3-3-4c3.3-11-0.2-18,2-25.7H250.3z M254.3,474.7h4.6v-9c-5-0.6-5,4-4.7,9H254.3z
		 M393.3,453.9c0.5-1.2,2.6-0.8,3,0C397.1,455.9,392.8,456.2,393.3,453.9z M290.9,458.8v4c-1.5-0.3-1.6,1-2.8,1
		c-2.7-0.2-4-1.7-3.8-5C285.5,457.4,289.6,457.4,290.9,458.8z M122.5,460.8C123.5,456.8,123.5,464.8,122.5,460.8z M376.5,461.8
		c2-0.5,1.3,2,2.8,2C378.9,466.3,375.7,463.8,376.5,461.8z M139.3,468.7c1.8-0.3,1.8,5.6-0.8,4c-0.4-2,0.6-2.6,1-4H139.3z
		 M360.5,469.7C364.8,470.4,359.7,475.7,360.5,469.7z M156.3,476.7c2.8-1.5,2.8,4.4,0,3V476.7z M344.5,479.6
		C345.5,475.6,345.5,483.6,344.5,479.6z M175.3,483.6h1.7v2h-1.8v-2H175.3z M325.7,487.6C325.3,487.1,326.3,488.2,325.7,487.6z
		 M194,490.5C193.6,490.1,194.6,491.2,194,490.5z M306.9,491.5c0-1,1-0.7,1.8-1C308.7,491.5,307.7,491.3,306.9,491.5z M212.8,491.5
		C216.3,494.5,209.8,494.9,212.8,491.5z M287.1,492.5c2.8-1.4,2.8,4.4,0,3V492.5z M270.3,494.5c2.6-1.5,2.6,4.4,0,3V494.5z
		 M230.7,496.5c0.2-1.3,1.8-1,1.8,0C232.1,497.9,231.7,496.5,230.7,496.5z M251.3,497.5C254.5,495.1,249.1,500.8,251.3,497.5z"/>
</g>
</svg>
